<?xml version="1.0" standalone="no"?>
<!DOCTYPE svg PUBLIC "-//W3C//DTD SVG 1.1//EN" "http://www.w3.org/Graphics/SVG/1.1/DTD/svg11.dtd" >
<svg xmlns="http://www.w3.org/2000/svg" xmlns:xlink="http://www.w3.org/1999/xlink" version="1.1">
<metadata>
Created by FontForge 20201107 at Wed Jan 18 18:29:48 2023
 By 
Copyright 2023 The Varela Round Project Authors (https://github.com/alefalefalef/Varela-Round-Hebrew/), with Reserved Font Names 'Varela' and 'Varela Round'.
</metadata>
<defs>
<font id="VarelaRound-Regular" horiz-adv-x="0" >
  <font-face 
    font-family="Varela Round"
    font-weight="400"
    font-stretch="normal"
    units-per-em="1000"
    panose-1="0 0 0 0 0 0 0 0 0 0"
    ascent="800"
    descent="-200"
    x-height="510"
    cap-height="703"
    bbox="-145 -240 1155 911"
    underline-thickness="50"
    underline-position="-125"
    unicode-range="U+000D-2215"
  />
<missing-glyph horiz-adv-x="514" 
d="M72 0q-22 0 -37 15t-15 37v593q0 22 15 37.5t37 15.5h369q22 0 37.5 -15.5t15.5 -37.5v-593q0 -22 -15.5 -37t-37.5 -15h-369zM257 397l156 251h-313zM70 96l157 253l-157 253v-506zM444 96v506l-158 -253zM100 50h313l-156 252z" />
    <glyph glyph-name="f_f" unicode="ff" horiz-adv-x="774" 
d="M162 -5q-19 0 -32 13t-13 32v392h-59q-16 0 -27.5 11.5t-11.5 27.5q0 17 11.5 28t27.5 11h59v58q0 63 22.5 101t57.5 54.5t70 16.5q25 0 47 -5.5t40 -14.5q9 -4 16 -13.5t7 -21.5q0 -14 -10.5 -26t-26.5 -12q-12 0 -24 3t-26 3q-37 0 -59.5 -17.5t-22.5 -70.5v-55h303v58
q0 63 22.5 101t57.5 54.5t70 16.5q25 0 47 -5.5t40 -14.5q9 -4 16 -13.5t7 -21.5q0 -14 -10.5 -26t-26.5 -12q-12 0 -24 3t-26 3q-37 0 -59.5 -17.5t-22.5 -70.5v-55h125q17 0 28 -11t11 -28q0 -16 -11 -27.5t-28 -11.5h-125v-392q0 -19 -13 -32t-33 -13q-19 0 -32 13
t-13 32v392h-303v-392q0 -19 -13 -32t-33 -13z" />
    <glyph glyph-name="f_f_i" unicode="ffi" horiz-adv-x="1031" 
d="M162 -5q-19 0 -32 13t-13 32v392h-59q-16 0 -27.5 11.5t-11.5 27.5q0 17 11.5 28t27.5 11h59v58q0 63 22.5 101t57.5 54.5t70 16.5q25 0 47 -5.5t40 -14.5q9 -4 16 -13.5t7 -21.5q0 -14 -10.5 -26t-26.5 -12q-12 0 -24 3t-26 3q-37 0 -59.5 -17.5t-22.5 -70.5v-55h303v58
q0 63 22.5 101t57.5 54.5t70 16.5q25 0 47 -5.5t40 -14.5q9 -4 16 -13.5t7 -21.5q0 -14 -10.5 -26t-26.5 -12q-12 0 -24 3t-26 3q-37 0 -59.5 -17.5t-22.5 -70.5v-55h304q20 0 33 -13t13 -33v-424q0 -19 -13 -32t-33 -13q-19 0 -32 13t-13 32v392h-259v-392q0 -19 -13 -32
t-33 -13q-19 0 -32 13t-13 32v392h-303v-392q0 -19 -13 -32t-33 -13zM904 614q-21 0 -36 15t-15 36v4q0 21 15 36t36 15h6q21 0 36 -15t15 -36v-4q0 -21 -15 -36t-36 -15h-6z" />
    <glyph glyph-name="f_f_l" unicode="ffl" horiz-adv-x="1030" 
d="M162 -5q-19 0 -32 13t-13 32v392h-59q-16 0 -27.5 11.5t-11.5 27.5q0 17 11.5 28t27.5 11h59v58q0 63 22.5 101t57.5 54.5t70 16.5q25 0 47 -5.5t40 -14.5q9 -4 16 -13.5t7 -21.5q0 -14 -10.5 -26t-26.5 -12q-12 0 -24 3t-26 3q-37 0 -59.5 -17.5t-22.5 -70.5v-55h303v58
q0 63 22.5 101t57.5 54.5t70 16.5q25 0 47 -5.5t40 -14.5q9 -4 16 -13.5t7 -21.5q0 -14 -10.5 -26t-26.5 -12q-12 0 -24 3t-26 3q-37 0 -59.5 -17.5t-22.5 -70.5v-55h125q17 0 28 -11t11 -28q0 -16 -11 -27.5t-28 -11.5h-125v-392q0 -19 -13 -32t-33 -13q-19 0 -32 13
t-13 32v392h-303v-392q0 -19 -13 -32t-33 -13zM905 -5q-19 0 -32 13t-13 32v649q0 20 13 33t32 13q20 0 33 -13t13 -33v-649q0 -19 -13 -32t-33 -13z" />
    <glyph glyph-name="f_j" unicode="fj" horiz-adv-x="637" 
d="M427 -240q-36 0 -63 9q-26 8 -26 36q0 15 11 26.5t27 11.5q7 0 14 -1.5t16 -1.5q26 0 43.5 9.5t17.5 49.5v533h-259v-392q0 -19 -13 -32t-33 -13q-19 0 -32 13t-13 32v392h-59q-16 0 -27.5 11.5t-11.5 27.5q0 17 11.5 28t27.5 11h59v58q0 63 22.5 101t57.5 54.5t70 16.5
q25 0 47 -5.5t40 -14.5q9 -4 16 -13.5t7 -21.5q0 -14 -10.5 -26t-26.5 -12q-12 0 -24 3t-26 3q-37 0 -59.5 -17.5t-22.5 -70.5v-55h307q19 -1 31 -14t12 -32v-567q0 -58 -29.5 -97.5t-101.5 -39.5zM510 614q-21 0 -36 15t-15 36v4q0 21 15 36t36 15h6q21 0 36 -15t15 -36v-4
q0 -21 -15 -36t-36 -15h-6z" />
    <glyph glyph-name="fi" unicode="fi" horiz-adv-x="637" 
d="M162 -5q-19 0 -32 13t-13 32v392h-59q-16 0 -27.5 11.5t-11.5 27.5q0 17 11.5 28t27.5 11h59v58q0 63 22.5 101t57.5 54.5t70 16.5q25 0 47 -5.5t40 -14.5q9 -4 16 -13.5t7 -21.5q0 -14 -10.5 -26t-26.5 -12q-12 0 -24 3t-26 3q-37 0 -59.5 -17.5t-22.5 -70.5v-55h307
q19 -1 31 -14t12 -32v-424q0 -19 -13 -32t-33 -13q-19 0 -32 13t-13 32v392h-259v-392q0 -19 -13 -32t-33 -13zM510 614q-21 0 -36 15t-15 36v4q0 21 15 36t36 15h6q21 0 36 -15t15 -36v-4q0 -21 -15 -36t-36 -15h-6z" />
    <glyph glyph-name="fl" unicode="fl" horiz-adv-x="636" 
d="M162 -5q-19 0 -32 13t-13 32v392h-59q-16 0 -27.5 11.5t-11.5 27.5q0 17 11.5 28t27.5 11h59v58q0 63 22.5 101t57.5 54.5t70 16.5q25 0 47 -5.5t40 -14.5q9 -4 16 -13.5t7 -21.5q0 -14 -10.5 -26t-26.5 -12q-12 0 -24 3t-26 3q-37 0 -59.5 -17.5t-22.5 -70.5v-55h125
q17 0 28 -11t11 -28q0 -16 -11 -27.5t-28 -11.5h-125v-392q0 -19 -13 -32t-33 -13zM511 -5q-19 0 -32 13t-13 32v649q0 20 13 33t32 13q20 0 33 -13t13 -33v-649q0 -19 -13 -32t-33 -13z" />
    <glyph glyph-name=".notdef" horiz-adv-x="514" 
d="M72 0q-22 0 -37 15t-15 37v593q0 22 15 37.5t37 15.5h369q22 0 37.5 -15.5t15.5 -37.5v-593q0 -22 -15.5 -37t-37.5 -15h-369zM257 397l156 251h-313zM70 96l157 253l-157 253v-506zM444 96v506l-158 -253zM100 50h313l-156 252z" />
    <glyph glyph-name=".null" 
 />
    <glyph glyph-name="nonmarkingreturn" horiz-adv-x="333" 
 />
    <glyph glyph-name="NULL" 
 />
    <glyph glyph-name="NULL" 
 />
    <glyph glyph-name="CR" unicode="&#xd;" horiz-adv-x="260" 
 />
    <glyph glyph-name="space" unicode=" " horiz-adv-x="260" 
 />
    <glyph glyph-name="exclam" unicode="!" horiz-adv-x="281" 
d="M141 193q-16 0 -24.5 8t-9.5 21l-18 330v99q0 22 15 37t37 15t36.5 -15t14.5 -37v-99l-18 -330q-1 -13 -9 -21t-24 -8zM141 -4q-24 0 -41.5 17.5t-17.5 42.5q0 24 17.5 41.5t41.5 17.5q25 0 42.5 -17.5t17.5 -41.5q0 -25 -17.5 -42.5t-42.5 -17.5z" />
    <glyph glyph-name="quotedbl" unicode="&#x22;" horiz-adv-x="411" 
d="M300 492q-12 0 -19.5 7.5t-9.5 17.5q-4 22 -10 53.5t-9.5 65t-2.5 61.5q1 21 16 35.5t35 14.5t35.5 -14.5t15.5 -35.5q0 -28 -3.5 -61.5t-8.5 -65t-10 -53.5q-2 -10 -9.5 -17.5t-19.5 -7.5zM111 492q-12 0 -19.5 7.5t-9.5 17.5q-4 22 -9.5 53.5t-9 65t-3.5 61.5
q0 21 15.5 35.5t35.5 14.5t35.5 -14.5t15.5 -35.5q0 -28 -3.5 -61.5t-8.5 -65t-10 -53.5q-2 -10 -9.5 -17.5t-19.5 -7.5z" />
    <glyph glyph-name="numbersign" unicode="#" horiz-adv-x="612" 
d="M159 -5q-13 0 -24 10t-11 25q0 1 0.5 4.5t2.5 17t7 44.5t14 86h-77q-14 0 -24.5 10.5t-10.5 24.5t10.5 24.5t24.5 10.5h88l24 152h-77q-14 0 -24.5 10.5t-10.5 24.5t10.5 24.5t24.5 10.5h88l25 158q2 11 11.5 19.5t23.5 8.5q16 0 25.5 -10t9.5 -25q0 -1 -0.5 -5
t-2.5 -17.5t-7 -44t-14 -84.5h127l25 158q2 11 11.5 19.5t23.5 8.5q16 0 25.5 -10t9.5 -25q0 -1 -0.5 -5t-2.5 -17.5t-7 -44t-14 -84.5h77q14 0 24.5 -10.5t10.5 -24.5t-10.5 -24.5t-24.5 -10.5h-88l-24 -152h77q14 0 24.5 -10.5t10.5 -24.5t-10.5 -24.5t-24.5 -10.5h-88
l-25 -158q-2 -11 -11.5 -20t-23.5 -9q-13 0 -24 10t-11 25q0 1 0.5 4.5t2.5 17t7 44.5t14 86h-127l-25 -158q-2 -11 -11.5 -20t-23.5 -9zM230 252h127l24 152h-127z" />
    <glyph glyph-name="dollar" unicode="$" horiz-adv-x="616" 
d="M311 -110q-13 0 -21.5 8.5t-8.5 21.5v71q-63 4 -113.5 17.5t-88.5 29.5q-11 5 -19.5 16.5t-8.5 24.5q0 17 11 29.5t30 12.5q10 0 19 -4q30 -13 72.5 -25t97.5 -15v230q-41 11 -80.5 25.5t-72 36t-51.5 54t-19 80.5q0 51 25.5 95t75 73t122.5 35v71q0 13 8.5 22t21.5 9
q14 0 22.5 -9t8.5 -22v-69q51 -2 94.5 -11t79.5 -22q11 -4 19.5 -13t8.5 -27q0 -15 -10.5 -28.5t-29.5 -13.5q-4 0 -8 1.5t-8 2.5q-32 11 -68.5 18.5t-77.5 8.5v-238q42 -10 83 -23t74.5 -35t53.5 -56.5t20 -86.5q0 -53 -28.5 -95.5t-80.5 -68.5t-122 -30v-71
q0 -13 -8.5 -21.5t-22.5 -8.5zM149 510q0 -32 17.5 -52.5t47.5 -33.5t67 -23v220q-58 -8 -95 -36t-37 -75zM483 191q0 29 -19 47.5t-51 30.5t-71 23v-215q61 5 101 30.5t40 83.5z" />
    <glyph glyph-name="percent" unicode="%" horiz-adv-x="814" 
d="M204 357q-53 0 -89 24t-54 64.5t-18 90.5t18 90.5t54 64.5t89 24t89 -24t54 -64.5t18 -90.5t-18 -90.5t-54 -64.5t-89 -24zM204 -10q-13 0 -23 9.5t-10 23.5q0 9 5 17l407 651q10 16 28 16q15 0 24.5 -8t9.5 -22q0 -11 -7 -22l-404 -647q-4 -7 -12 -12.5t-18 -5.5z
M204 422q44 0 67.5 33t23.5 81t-23.5 81t-67.5 33t-67.5 -33t-23.5 -81t23.5 -81t67.5 -33zM610 -18q-53 0 -89 24t-54 64.5t-18 90.5t18 90.5t54 64.5t89 24t89 -24t54 -64.5t18 -90.5t-18 -90.5t-54 -64.5t-89 -24zM610 47q44 0 67.5 33t23.5 81t-23.5 81t-67.5 33
t-67.5 -33t-23.5 -81t23.5 -81t67.5 -33z" />
    <glyph glyph-name="ampersand" unicode="&#x26;" horiz-adv-x="732" 
d="M316 -10q-88 0 -142 31t-78.5 78.5t-24.5 96.5q0 52 20 90.5t47 64t46 37.5q-26 32 -43.5 65t-17.5 80t22.5 87t64.5 64t100 24q38 0 72 -13t61 -31q7 -4 12.5 -12t5.5 -18q0 -13 -10 -24t-25 -11q-8 0 -18 5q-19 11 -42.5 18.5t-51.5 7.5q-52 0 -79.5 -28.5t-27.5 -63.5
q0 -30 10 -52t32 -45.5t58 -57.5l209 -197q11 17 19 32.5t14 28.5q5 11 15.5 18t23.5 7q18 0 30 -11.5t12 -29.5q0 -10 -5 -20q-20 -43 -48 -82l67 -64q8 -7 12 -14t4 -18q0 -16 -10.5 -28.5t-30.5 -12.5q-18 0 -31 12l-67 64q-40 -34 -92 -56t-113 -22zM308 67
q49 0 87.5 16.5t66.5 39.5l-223 209q-18 -12 -37 -31.5t-32 -46t-13 -61.5q0 -37 20 -65.5t54.5 -44.5t76.5 -16z" />
    <glyph glyph-name="quotesingle" unicode="'" horiz-adv-x="222" 
d="M111 492q-12 0 -19.5 7.5t-9.5 17.5q-4 22 -9.5 53.5t-9 65t-3.5 61.5q0 21 15.5 35.5t35.5 14.5t35.5 -14.5t15.5 -35.5q0 -28 -3.5 -61.5t-8.5 -65t-10 -53.5q-2 -10 -9.5 -17.5t-19.5 -7.5z" />
    <glyph glyph-name="parenleft" unicode="(" horiz-adv-x="312" 
d="M225 -154q-13 0 -19.5 5t-13.5 13q-72 86 -106.5 202t-34.5 241t34.5 241.5t106.5 201.5q7 8 13.5 13t19.5 5q16 0 28 -11t12 -28q0 -11 -6 -22q-52 -86 -84.5 -187.5t-32.5 -212.5t32.5 -212.5t84.5 -187.5q6 -10 6 -22q0 -17 -12 -28t-28 -11z" />
    <glyph glyph-name="parenright" unicode=")" horiz-adv-x="312" 
d="M88 -154q-16 0 -28 11t-12 28q0 12 6 22q52 86 84.5 187.5t32.5 212.5t-32.5 212.5t-84.5 187.5q-6 11 -6 22q0 17 12 28t28 11q13 0 19.5 -5t13.5 -13q72 -85 106.5 -201.5t34.5 -241.5t-34.5 -241t-106.5 -202q-7 -8 -13.5 -13t-19.5 -5z" />
    <glyph glyph-name="asterisk" unicode="*" horiz-adv-x="417" 
d="M208 384q-11 0 -20.5 8t-9.5 21q0 1 0.5 6t4 27t11.5 73q-40 -32 -57 -46t-21.5 -17t-5.5 -4q-11 -6 -22.5 -2t-17.5 14q-5 10 -3 22t13 18q1 1 6 3t25.5 10t68.5 26q-48 19 -68.5 27t-25.5 10t-6 2q-11 7 -13 19t3 22q6 10 17.5 14t22.5 -3q1 0 5.5 -3.5t21.5 -17
t57 -46.5q-8 51 -11.5 73t-4 27t-0.5 6q0 13 9.5 21t20.5 8t20.5 -8t9.5 -21q0 -1 -0.5 -6t-4 -27t-11.5 -73q40 33 57.5 46.5t21.5 17t5 3.5q11 7 22.5 3t17.5 -14q5 -10 3 -22t-13 -19q-1 0 -6 -2t-25.5 -10t-68.5 -27q48 -18 68.5 -26t25.5 -10t6 -3q11 -6 13 -18t-3 -22
q-6 -10 -17.5 -14t-22.5 2q-1 1 -5 4t-21.5 17l-57.5 46q8 -51 11.5 -73t4 -27t0.5 -6q0 -13 -9.5 -21t-20.5 -8z" />
    <glyph glyph-name="plus" unicode="+" horiz-adv-x="562" 
d="M281 104q-16 0 -27.5 11.5t-11.5 27.5v164h-164q-16 0 -27 11t-11 27q0 17 11 28t27 11h164v164q0 17 11.5 28t27.5 11q17 0 28 -11t11 -28v-164h163q17 0 28 -11t11 -28q0 -16 -11 -27t-28 -11h-163v-164q0 -16 -11 -27.5t-28 -11.5z" />
    <glyph glyph-name="comma" unicode="," horiz-adv-x="260" 
d="M92 -151q-13 0 -21 9t-8 21q0 16 15 25q22 13 36.5 32.5t14.5 60.5h-4q-23 0 -39.5 16.5t-16.5 39.5v6q0 23 16.5 39.5t39.5 16.5h10q23 0 39.5 -16.5t16.5 -39.5v-59q0 -60 -26.5 -94t-55.5 -52q-2 -1 -7 -3t-10 -2z" />
    <glyph glyph-name="hyphen" unicode="-" horiz-adv-x="408" 
d="M109 240q-17 0 -28.5 11.5t-11.5 28.5t11.5 29t28.5 12h189q17 0 29 -12t12 -29t-12 -28.5t-29 -11.5h-189z" />
    <glyph glyph-name="period" unicode="." horiz-adv-x="260" 
d="M125 -3q-23 0 -39.5 16.5t-16.5 39.5v6q0 23 16.5 39.5t39.5 16.5h10q23 0 39.5 -16.5t16.5 -39.5v-6q0 -23 -16.5 -39.5t-39.5 -16.5h-10z" />
    <glyph glyph-name="slash" unicode="/" horiz-adv-x="443" 
d="M89 -95q-18 0 -29.5 12t-11.5 29q0 4 1 8.5t2 6.5l265 775q4 12 14 20t25 8q18 0 29.5 -12t11.5 -29q0 -4 -1 -8.5t-2 -6.5l-265 -775q-4 -12 -14 -20t-25 -8z" />
    <glyph glyph-name="zero" unicode="0" horiz-adv-x="628" 
d="M314 -10q-90 0 -150.5 45t-90.5 126t-30 188t30 188t90.5 126t150.5 45t150 -45t90.5 -126t30.5 -188t-30.5 -188t-90.5 -126t-150 -45zM314 74q89 0 134.5 74t45.5 201q0 126 -45.5 200t-134.5 74q-88 0 -134 -74t-46 -200q0 -127 46 -201t134 -74z" />
    <glyph glyph-name="one" unicode="1" horiz-adv-x="628" 
d="M177 0q-18 0 -30 12t-12 30t12 30.5t30 12.5h119v507l-102 -50l-10 -4t-13 -2q-19 0 -31 12t-12 31q0 28 26 41l136 71q14 7 28 7h21q20 0 34 -14t14 -34v-565h99q18 0 30.5 -12.5t12.5 -30.5t-12.5 -30t-30.5 -12h-309z" />
    <glyph glyph-name="two" unicode="2" horiz-adv-x="628" 
d="M118 0q-23 0 -38 14.5t-15 37.5q0 53 29 95.5t74.5 78t96.5 67.5t96.5 63.5t74.5 66t29 75.5q0 53 -35.5 88.5t-122.5 35.5q-51 0 -94 -10.5t-77 -25.5q-1 -1 -7 -3t-12 -2q-16 0 -27 11.5t-11 27.5q0 25 22 37q42 21 97.5 36t124.5 15q64 0 116 -25.5t83 -71t31 -106.5
q0 -51 -25 -94.5t-65.5 -80t-87.5 -69t-92 -61.5t-79 -57.5t-48 -57.5h348q18 0 30.5 -12.5t12.5 -30.5t-12.5 -30t-30.5 -12h-386z" />
    <glyph glyph-name="three" unicode="3" horiz-adv-x="628" 
d="M294 -10q-67 0 -119.5 12.5t-89.5 27.5q-11 5 -18.5 14.5t-7.5 23.5q0 16 11 29t29 13q9 0 19 -4q30 -12 70 -20.5t89 -8.5q44 0 86.5 9.5t70.5 33.5t28 68q0 37 -21 65.5t-69 44.5t-131 16h-16q-17 0 -29.5 12.5t-12.5 29.5t12.5 29.5t29.5 12.5h6q98 0 152 30t54 91
q0 47 -39 75.5t-119 28.5q-47 0 -85.5 -9.5t-69.5 -23.5q-4 -1 -8 -2.5t-10 -1.5q-15 0 -26 10.5t-11 26.5q0 23 20 34q35 19 85 35t113 16q116 0 178.5 -47t62.5 -133q0 -50 -18.5 -83.5t-46 -53t-56.5 -30.5q21 -5 46 -16t48 -31.5t37.5 -52.5t14.5 -78
q0 -64 -34.5 -106.5t-93 -64.5t-131.5 -22z" />
    <glyph glyph-name="four" unicode="4" horiz-adv-x="628" 
d="M433 -5q-19 0 -32 13t-13 32v136h-305q-24 0 -41 16.5t-17 40.5v9q0 21 12 36l314 401q8 11 21.5 17.5t28.5 6.5h20q26 0 42 -17t16 -41v-388h76q17 0 29 -12t12 -29t-12 -28.5t-29 -11.5h-76v-136q0 -19 -13.5 -32t-32.5 -13zM122 257h266v343z" />
    <glyph glyph-name="five" unicode="5" horiz-adv-x="628" 
d="M297 -10q-70 0 -122.5 17t-90.5 41q-7 5 -13.5 12.5t-6.5 23.5q0 17 11 30t29 13q11 0 21 -5q32 -17 72.5 -29.5t87.5 -12.5q59 0 103 13t68 43.5t24 84.5q0 62 -41.5 98t-113.5 36q-51 0 -90 -14t-64 -29q-7 -4 -15 -8t-20 -4q-28 0 -47 15.5t-19 42.5q0 12 2 24l45 266
q3 23 17.5 36.5t35.5 13.5h321q18 0 30.5 -12.5t12.5 -30.5t-12.5 -30t-30.5 -12h-290l-32 -212q31 17 72.5 29t96.5 12q76 0 127.5 -29.5t78.5 -80.5t27 -116q0 -64 -29 -115t-89.5 -81t-155.5 -30z" />
    <glyph glyph-name="six" unicode="6" horiz-adv-x="628" 
d="M333 -10q-74 0 -123.5 23.5t-79.5 63t-45.5 86.5t-20.5 95.5t-5 89.5q0 59 14.5 121.5t48 117t89.5 88t138 33.5q62 0 104.5 -13.5t72.5 -29.5q21 -10 21 -36q0 -16 -11 -28.5t-30 -12.5q-9 0 -17 3q-25 12 -58.5 20.5t-74.5 8.5q-64 0 -104.5 -26.5t-63 -67.5
t-31.5 -84.5t-11 -77.5q25 32 74 60t131 28q68 0 119.5 -29t80.5 -81.5t29 -124.5q0 -63 -30 -114.5t-85 -82t-132 -30.5zM334 75q48 0 82.5 20t53.5 53t19 71q0 66 -37 108t-112 42q-59 0 -97 -19.5t-59.5 -45t-32.5 -45.5q7 -48 26 -90t57 -68t100 -26z" />
    <glyph glyph-name="seven" unicode="7" horiz-adv-x="628" 
d="M230 -5q-19 0 -32 13t-13 32q0 12 6 24l275 547h-363q-18 0 -30.5 12.5t-12.5 30.5t12.5 31t30.5 13h408q24 0 40 -15t16 -38q0 -22 -10 -44l-284 -581q-13 -25 -43 -25z" />
    <glyph glyph-name="eight" unicode="8" horiz-adv-x="628" 
d="M314 -10q-75 0 -126 17.5t-82 46.5t-45 63.5t-14 67.5q0 77 41 122t108 67q-46 16 -81 53.5t-35 98.5q0 29 12 61t39.5 59.5t72 44.5t110.5 17t110.5 -17t72 -44.5t39.5 -59.5t12 -61q0 -61 -34.5 -98.5t-81.5 -53.5q67 -22 108 -67t41 -122q0 -33 -14 -67.5t-45 -63.5
t-82 -46.5t-126 -17.5zM314 412q55 0 86 17.5t44 42.5t13 48q0 44 -35 76t-108 32t-108 -32t-35 -76q0 -23 13 -48t44.5 -42.5t85.5 -17.5zM314 70q67 0 105.5 22t54.5 51.5t16 51.5q0 45 -25 75t-65 45t-86 15t-86 -15t-65 -45t-25 -75q0 -22 16 -51.5t54.5 -51.5
t105.5 -22z" />
    <glyph glyph-name="nine" unicode="9" horiz-adv-x="628" 
d="M279 -10q-62 0 -104.5 13.5t-72.5 29.5q-21 11 -21 36q0 16 11 28.5t30 12.5q10 0 17 -3q26 -12 59 -20.5t74 -8.5q65 0 105 26.5t62.5 67.5t31.5 84.5t11 77.5q-25 -31 -73.5 -59.5t-131.5 -28.5q-68 0 -119.5 29t-80.5 82t-29 124q0 63 30 114.5t85.5 82t131.5 30.5
q74 0 123.5 -23.5t79.5 -63t45.5 -86.5t20.5 -95.5t5 -89.5q0 -58 -14.5 -121t-48 -117.5t-89 -88t-138.5 -33.5zM288 329q59 0 97 19.5t60 45.5t32 45q-7 49 -26 90.5t-56.5 67.5t-100.5 26q-48 0 -82.5 -20t-53.5 -52.5t-19 -71.5q0 -66 37 -108t112 -42z" />
    <glyph glyph-name="colon" unicode=":" horiz-adv-x="260" 
d="M125 395q-23 0 -39.5 16.5t-16.5 39.5v6q0 23 16.5 39.5t39.5 16.5h10q23 0 39.5 -16.5t16.5 -39.5v-6q0 -23 -16.5 -39.5t-39.5 -16.5h-10zM125 -3q-23 0 -39.5 16.5t-16.5 39.5v6q0 23 16.5 39.5t39.5 16.5h10q23 0 39.5 -16.5t16.5 -39.5v-6q0 -23 -16.5 -39.5
t-39.5 -16.5h-10z" />
    <glyph glyph-name="semicolon" unicode=";" horiz-adv-x="260" 
d="M125 395q-23 0 -39.5 16.5t-16.5 39.5v6q0 23 16.5 39.5t39.5 16.5h10q23 0 39.5 -16.5t16.5 -39.5v-6q0 -23 -16.5 -39.5t-39.5 -16.5h-10zM92 -151q-13 0 -21 9t-8 21q0 16 15 25q22 13 36.5 32.5t14.5 60.5h-4q-23 0 -39.5 16.5t-16.5 39.5v6q0 23 16.5 39.5
t39.5 16.5h10q23 0 39.5 -16.5t16.5 -39.5v-59q0 -60 -26.5 -94t-55.5 -52q-2 -1 -7 -3t-10 -2z" />
    <glyph glyph-name="less" unicode="&#x3c;" horiz-adv-x="580" 
d="M486 58q-8 0 -16 3l-399 179q-36 16 -36 52v8q0 36 36 52l399 179q8 3 16 3q17 0 28.5 -11.5t11.5 -28.5q0 -26 -27 -38l-360 -160l360 -160q27 -12 27 -38q0 -17 -11.5 -28.5t-28.5 -11.5z" />
    <glyph glyph-name="equal" unicode="=" horiz-adv-x="712" 
d="M112 404q-16 0 -27.5 11.5t-11.5 27.5q0 17 11.5 28t27.5 11h488q17 0 28 -11t11 -28q0 -16 -11 -27.5t-28 -11.5h-488zM112 180q-16 0 -27.5 11.5t-11.5 27.5q0 17 11.5 28t27.5 11h488q17 0 28 -11t11 -28q0 -16 -11 -27.5t-28 -11.5h-488z" />
    <glyph glyph-name="greater" unicode="&#x3e;" horiz-adv-x="580" 
d="M94 58q-16 0 -28 11.5t-12 28.5q0 26 27 38l360 160l-360 160q-27 12 -27 38q0 17 12 28.5t28 11.5q9 0 16 -3l399 -179q36 -16 36 -52v-8q0 -36 -36 -52l-399 -179q-7 -3 -16 -3z" />
    <glyph glyph-name="question" unicode="?" horiz-adv-x="497" 
d="M221 186q-19 0 -31.5 11.5t-12.5 27.5q0 51 18.5 86.5t46.5 61t55.5 46.5t46 43.5t18.5 51.5q0 51 -33.5 80t-109.5 29q-34 0 -68 -8t-60 -25q-12 -8 -25 -8q-16 0 -28 12t-12 28q0 14 7.5 23t17.5 15q42 26 84.5 37t91.5 11q102 0 163.5 -51t61.5 -138q0 -48 -19 -80
t-46.5 -55.5t-55.5 -45.5t-47 -48.5t-19 -64.5q0 -16 -13.5 -27.5t-30.5 -11.5zM219 -4q-24 0 -41.5 17.5t-17.5 42.5q0 24 17.5 41.5t41.5 17.5q25 0 42.5 -17.5t17.5 -41.5q0 -25 -17.5 -42.5t-42.5 -17.5z" />
    <glyph glyph-name="at" unicode="@" horiz-adv-x="898" 
d="M400 -83q-80 0 -145 28t-111 76.5t-70.5 110.5t-24.5 130q0 86 33.5 163t92 136t135 93t163.5 34q77 0 146 -25.5t122 -71t83 -109t30 -140.5q0 -44 -10 -87.5t-32 -79.5t-57.5 -58t-86.5 -22q-54 0 -80.5 24t-31.5 50q-32 -39 -75 -57t-90 -18q-82 0 -126 50.5
t-44 125.5q0 78 34.5 132.5t89 82.5t113.5 28q46 0 77.5 -16.5t50.5 -34.5l3 17q2 14 13 22.5t24 8.5q15 0 25.5 -10.5t10.5 -26.5v-3.5t-1 -7.5l-33 -190q-2 -12 -4.5 -29.5t-2.5 -35.5q0 -25 11.5 -45t38.5 -20q63 0 96 55t33 145q0 72 -28.5 127t-75.5 92t-105 55.5
t-118 18.5q-76 0 -143 -29.5t-118.5 -81t-81 -119t-29.5 -143.5q0 -54 19.5 -106t57.5 -94.5t93.5 -67.5t128.5 -25q68 0 115.5 13.5t93.5 32.5q6 2 11 2q11 0 18 -6.5t7 -17.5q0 -16 -14 -23q-42 -21 -99.5 -37t-131.5 -16zM413 163q32 0 62 11.5t52.5 42t31.5 86.5l16 93
q-17 18 -44.5 32t-68.5 14q-42 0 -79.5 -18.5t-61 -54.5t-23.5 -89q0 -61 34 -89t81 -28z" />
    <glyph glyph-name="A" unicode="A" horiz-adv-x="746" 
d="M95 -5q-21 0 -33 13t-12 32q0 8 5 20l255 602q7 16 21.5 28.5t36.5 12.5h10q23 0 37 -12.5t21 -28.5l255 -602q5 -12 5 -20q0 -19 -12 -32t-33 -13q-31 0 -43 28l-65 156h-340l-65 -156q-12 -28 -43 -28zM238 262h270l-135 325z" />
    <glyph glyph-name="B" unicode="B" horiz-adv-x="693" 
d="M142 0q-19 0 -32 13t-13 32v607q0 19 13 32.5t32 13.5h236q110 0 167 -50t57 -131q0 -62 -30 -99.5t-68 -54.5q36 -11 67.5 -33t50.5 -55t19 -79q0 -58 -25.5 -102.5t-82 -69t-149.5 -24.5h-242zM188 396h166q63 0 98 15t49 41t14 58q0 47 -38 75t-106 28h-183v-217z
M188 85h187q69 0 107.5 14.5t54.5 40.5t16 60q0 59 -45.5 86.5t-131.5 27.5h-188v-229z" />
    <glyph glyph-name="C" unicode="C" horiz-adv-x="695" 
d="M405 -10q-99 0 -178.5 43.5t-125.5 124t-46 191.5q0 112 46 192t125.5 123.5t178.5 43.5q74 0 128 -18t100 -44q10 -5 15.5 -13.5t6.5 -22.5q1 -16 -10 -28t-30 -12q-10 0 -18 4q-40 21 -82 34t-101 13q-88 0 -148 -36t-90 -97.5t-30 -138.5t30 -138.5t90 -97.5t148 -36
q59 0 101 13t82 34q8 4 18 4q19 0 30 -12t10 -28q-1 -14 -6.5 -22.5t-15.5 -13.5q-46 -26 -100 -44t-128 -18z" />
    <glyph glyph-name="D" unicode="D" horiz-adv-x="751" 
d="M142 0q-19 0 -32 13t-13 32v607q0 19 13 32.5t32 13.5h201q90 0 156 -30.5t110 -81t65.5 -112.5t21.5 -125t-21.5 -125t-65.5 -112.5t-110 -81t-156 -30.5h-201zM188 85h144q84 0 145.5 33.5t95 93t33.5 137.5t-33.5 137.5t-95 93t-145.5 33.5h-144v-528z" />
    <glyph glyph-name="E" unicode="E" horiz-adv-x="638" 
d="M142 0q-19 0 -32 13t-13 32v607q0 19 13 32.5t32 13.5h401q18 0 30.5 -12.5t12.5 -30.5t-12.5 -30t-30.5 -12h-355v-221h319q18 0 30.5 -12.5t12.5 -30.5t-12.5 -30t-30.5 -12h-319v-222h355q18 0 30.5 -12.5t12.5 -30.5t-12.5 -30t-30.5 -12h-401z" />
    <glyph glyph-name="F" unicode="F" horiz-adv-x="608" 
d="M142 -5q-19 0 -32 13t-13 32v612q0 19 13 32.5t32 13.5h389q18 0 30.5 -12.5t12.5 -30.5t-12.5 -30t-30.5 -12h-343v-221h308q18 0 30.5 -12.5t12.5 -30.5t-12.5 -30t-30.5 -12h-308v-267q0 -19 -13.5 -32t-32.5 -13z" />
    <glyph glyph-name="G" unicode="G" horiz-adv-x="757" 
d="M406 -10q-105 0 -184 46t-123 126.5t-44 185.5q0 81 27 147.5t74.5 114t110.5 73t136 25.5q85 0 143.5 -21t105.5 -51q7 -4 13.5 -13t6.5 -23q0 -16 -11 -28.5t-31 -12.5q-11 0 -21 5q-44 26 -91 41t-105 15q-75 0 -135.5 -31.5t-96 -92t-35.5 -148.5q0 -77 32 -138.5
t93 -97.5t147 -36q53 0 97 12.5t78 31.5v181h-165q-17 0 -29 12t-12 29t12 29t29 12h197q20 0 34 -14t14 -34v-227q0 -21 -10.5 -37.5t-27.5 -24.5q-49 -25 -106.5 -40.5t-122.5 -15.5z" />
    <glyph glyph-name="H" unicode="H" horiz-adv-x="755" 
d="M142 -5q-19 0 -32 13t-13 32v617q0 19 13 32.5t32 13.5t32.5 -13.5t13.5 -32.5v-266h379v266q0 19 13 32.5t32 13.5t32.5 -13.5t13.5 -32.5v-617q0 -19 -13.5 -32t-32.5 -13t-32 13t-13 32v266h-379v-266q0 -19 -13.5 -32t-32.5 -13z" />
    <glyph glyph-name="I" unicode="I" horiz-adv-x="285" 
d="M142 -5q-19 0 -32 13t-13 32v617q0 19 13 32.5t32 13.5t32.5 -13.5t13.5 -32.5v-617q0 -19 -13.5 -32t-32.5 -13z" />
    <glyph glyph-name="J" unicode="J" horiz-adv-x="466" 
d="M168 -10q-38 0 -71.5 9t-61.5 25q-9 5 -15.5 14t-6.5 23q0 16 10.5 28.5t27.5 12.5q10 0 18 -4q20 -10 43.5 -16t49.5 -6q30 0 57.5 11t45.5 42.5t18 94.5v433q0 19 13 32.5t32 13.5t32.5 -13.5t13.5 -32.5v-427q0 -72 -17.5 -118.5t-47 -73t-66.5 -37.5t-75 -11z" />
    <glyph glyph-name="K" unicode="K" horiz-adv-x="670" 
d="M142 -5q-19 0 -32 13t-13 32v617q0 19 13 32.5t32 13.5t32.5 -13.5t13.5 -32.5v-318l342 348q5 6 14 11t20 5q18 0 31 -12.5t11 -30.5q-2 -19 -11 -28l-231 -230l265 -334q11 -14 11 -29q1 -18 -12 -31t-32 -13q-23 0 -36 18l-258 329l-114 -115v-187q0 -19 -13.5 -32
t-32.5 -13z" />
    <glyph glyph-name="L" unicode="L" horiz-adv-x="576" 
d="M160 0q-26 0 -44.5 18.5t-18.5 44.5v594q0 19 13 32.5t32 13.5t32.5 -13.5t13.5 -32.5v-566h327q19 0 32.5 -13.5t13.5 -32.5t-13.5 -32t-32.5 -13h-355z" />
    <glyph glyph-name="M" unicode="M" horiz-adv-x="966" 
d="M142 -5q-19 0 -32 13t-13 32v597q0 27 19 46.5t46 19.5h33q20 0 37 -12t24 -30l227 -566l227 566q8 18 24.5 30t36.5 12h33q27 0 46 -19.5t19 -46.5v-597q0 -19 -13 -32t-32 -13t-32.5 13t-13.5 32v568l-231 -571q-8 -19 -25 -30.5t-39 -11.5t-39 11.5t-25 30.5l-231 571
v-568q0 -19 -13.5 -32t-32.5 -13z" />
    <glyph glyph-name="N" unicode="N" horiz-adv-x="803" 
d="M142 -5q-19 0 -32 13t-13 32v597q0 27 19 46.5t46 19.5h13q17 0 31 -8t24 -22l385 -556v540q0 19 13 32.5t32 13.5t32.5 -13.5t13.5 -32.5v-597q0 -27 -19.5 -46t-46.5 -19h-12q-16 0 -30 7.5t-23 19.5l-387 559v-541q0 -19 -13.5 -32t-32.5 -13z" />
    <glyph glyph-name="O" unicode="O" horiz-adv-x="812" 
d="M406 -10q-107 0 -185 46t-121 127t-45 186q2 105 45 186t121 127t185 46t185 -46t121 -127t45 -186q-2 -105 -45 -186t-121 -127t-185 -46zM406 75q83 0 141 36.5t88.5 98.5t30.5 139t-30.5 139t-88.5 98.5t-141 36.5t-141 -36.5t-88.5 -98.5t-30.5 -139t30.5 -139
t88.5 -98.5t141 -36.5z" />
    <glyph glyph-name="P" unicode="P" horiz-adv-x="672" 
d="M142 -5q-19 0 -32 13t-13 32v612q0 19 13 32.5t32 13.5h228q76 0 127.5 -19.5t82 -52t44 -71.5t13.5 -79t-13.5 -79t-44 -71.5t-82 -52t-127.5 -19.5h-182v-214q0 -19 -13.5 -32t-32.5 -13zM188 340h173q75 0 115 20.5t55 52t15 63.5q0 33 -15 64t-55 51.5t-115 20.5
h-173v-272z" />
    <glyph glyph-name="Q" unicode="Q" horiz-adv-x="812" 
d="M607 -152q-19 0 -32 16l-109 130q-14 -2 -29 -3t-31 -1q-107 0 -185 46t-121 127t-45 186q2 105 45 186t121 127t185 46t185 -46t121 -127t45 -186q-2 -117 -56.5 -204.5t-150.5 -127.5l88 -97q12 -12 12 -29q1 -17 -12 -30t-31 -13zM406 75q83 0 141 36.5t88.5 98.5
t30.5 139t-30.5 139t-88.5 98.5t-141 36.5t-141 -36.5t-88.5 -98.5t-30.5 -139t30.5 -139t88.5 -98.5t141 -36.5z" />
    <glyph glyph-name="R" unicode="R" horiz-adv-x="712" 
d="M142 -5q-19 0 -32 13t-13 32v612q0 19 13 32.5t32 13.5h233q95 0 155 -27t88.5 -72.5t28.5 -103.5t-32.5 -108t-98.5 -73q42 -11 67 -39.5t37.5 -64.5t16.5 -69.5t4 -54.5v-46q0 -19 -13 -32t-32 -13q-21 0 -33.5 12.5t-12.5 32.5v30q0 25 -3.5 59t-17.5 67t-45.5 54.5
t-88.5 21.5h-207v-232q0 -19 -13.5 -32t-32.5 -13zM188 358h181q84 0 135.5 33t51.5 97q0 37 -17 65t-59 43.5t-116 15.5h-176v-254z" />
    <glyph glyph-name="S" unicode="S" horiz-adv-x="616" 
d="M317 -10q-75 0 -134.5 14.5t-103.5 33.5q-11 5 -19.5 16.5t-8.5 24.5q0 17 11 29.5t30 12.5q10 0 19 -4q34 -15 83.5 -28t113.5 -13q50 0 89.5 10.5t62.5 36t23 68.5q0 32 -23 51.5t-61 32.5t-83.5 24t-90.5 24.5t-83 35.5t-61 56.5t-23 87.5q0 56 29.5 102.5t87.5 74.5
t142 28q59 0 109 -9t90 -24q11 -4 19.5 -13t8.5 -27q0 -15 -10.5 -28.5t-29.5 -13.5q-4 0 -8 1.5t-8 2.5q-34 12 -74.5 19.5t-86.5 7.5q-76 0 -127 -29t-51 -85q0 -37 23 -59t61 -35t83 -23.5t90 -23.5t83 -34.5t61 -57t23 -92.5q0 -56 -31.5 -100.5t-89 -69.5t-135.5 -25z
" />
    <glyph glyph-name="T" unicode="T" horiz-adv-x="609" 
d="M304 -5q-19 0 -32 13t-13 32v573h-204q-18 0 -30 12t-12 30t12 30.5t30 12.5h498q18 0 30.5 -12.5t12.5 -30.5t-12.5 -30t-30.5 -12h-203v-573q0 -19 -13.5 -32t-32.5 -13z" />
    <glyph glyph-name="U" unicode="U" horiz-adv-x="758" 
d="M379 -10q-50 0 -101 16t-93 49.5t-67.5 85t-25.5 121.5v395q0 19 13 32.5t32 13.5t32.5 -13.5t13.5 -32.5v-398q0 -62 28.5 -103.5t73.5 -62t94 -20.5t94 20.5t73.5 62t28.5 103.5v398q0 19 13 32.5t32 13.5t32.5 -13.5t13.5 -32.5v-395q0 -70 -25.5 -121.5t-67.5 -85
t-93 -49.5t-101 -16z" />
    <glyph glyph-name="V" unicode="V" horiz-adv-x="694" 
d="M336 -5q-41 0 -62 46l-247 599q-3 8 -3 17q0 20 12 33t33 13q30 0 43 -31l235 -586l235 586q13 31 43 31q21 0 33 -13t12 -33q0 -9 -3 -17l-247 -599q-21 -46 -62 -46h-22z" />
    <glyph glyph-name="W" unicode="W" horiz-adv-x="1011" 
d="M286 -5q-19 0 -35 11t-24 34l-196 602q-3 11 -3 17q-1 19 12 31.5t32 12.5q17 0 29 -10t16 -26l168 -552l169 550q5 17 19.5 27.5t32.5 10.5t32.5 -10.5t19.5 -27.5l169 -550l168 552q5 16 17 26t28 10q20 0 33 -12.5t11 -31.5q0 -6 -3 -17l-196 -602q-8 -23 -24 -34
t-35 -11q-20 0 -36.5 13t-22.5 32l-161 510l-161 -510q-6 -19 -22.5 -32t-36.5 -13z" />
    <glyph glyph-name="X" unicode="X" horiz-adv-x="671" 
d="M86 -5q-17 0 -29.5 12.5t-12.5 29.5q0 16 9 28l231 284l-229 282q-9 12 -9 28q0 19 12.5 31.5t31.5 12.5q24 0 37 -18l211 -268l211 270q11 16 33 16q18 0 31 -12.5t13 -30.5q0 -14 -8 -25l-231 -285l231 -284q9 -10 9 -26q0 -18 -12 -31.5t-33 -13.5q-22 0 -36 19
l-214 269l-211 -270q-15 -18 -35 -18z" />
    <glyph glyph-name="Y" unicode="Y" horiz-adv-x="639" 
d="M320 -5q-19 0 -32.5 13t-13.5 32v255l-239 335q-8 13 -8 27q0 19 12.5 32.5t31.5 13.5q25 0 40 -23l209 -304l209 304q15 23 40 23q20 0 32.5 -13.5t11.5 -32.5q0 -14 -8 -27l-240 -335v-255q0 -19 -13 -32t-32 -13z" />
    <glyph glyph-name="Z" unicode="Z" horiz-adv-x="638" 
d="M105 0q-24 0 -41 17t-17 41q0 22 12 37l418 516h-385q-18 0 -30.5 12.5t-12.5 30.5t12.5 31t30.5 13h434q29 0 45 -18.5t16 -43.5q0 -22 -16 -40l-413 -511h392q18 0 30.5 -12.5t12.5 -30.5t-12.5 -30t-30.5 -12h-445z" />
    <glyph glyph-name="bracketleft" unicode="[" horiz-adv-x="322" 
d="M131 -132q-18 0 -31 13t-13 31v776q0 18 13 31t31 13h127q15 0 25.5 -10.5t10.5 -25.5t-10.5 -25.5t-25.5 -10.5h-92v-721h92q15 0 25.5 -10.5t10.5 -24.5t-10.5 -25t-25.5 -11h-127z" />
    <glyph glyph-name="backslash" unicode="\" horiz-adv-x="443" 
d="M354 -95q-15 0 -25 8t-14 20l-265 775q-1 2 -2 6.5t-1 8.5q0 17 11.5 29t29.5 12q15 0 25 -8t14 -20l265 -775q1 -2 2 -6.5t1 -8.5q0 -17 -11.5 -29t-29.5 -12z" />
    <glyph glyph-name="bracketright" unicode="]" horiz-adv-x="322" 
d="M64 -132q-15 0 -25.5 11t-10.5 25t10.5 24.5t25.5 10.5h92v721h-92q-15 0 -25.5 10.5t-10.5 25.5t10.5 25.5t25.5 10.5h127q18 0 31 -13t13 -31v-776q0 -18 -13 -31t-31 -13h-127z" />
    <glyph glyph-name="asciicircum" unicode="^" horiz-adv-x="524" 
d="M118 415q-16 0 -26 11t-10 25q0 5 2 9.5t4 8.5l105 199q8 14 19 24t30 10h38q20 0 31 -10t18 -24l105 -199q2 -4 4 -8.5t2 -9.5q0 -14 -10 -25t-26 -11q-17 0 -26 11q-1 1 -3.5 5.5t-13 22t-34.5 56t-66 106.5q-42 -67 -65.5 -105.5t-34 -56l-13.5 -22.5t-4 -6
q-9 -11 -26 -11z" />
    <glyph glyph-name="underscore" unicode="_" horiz-adv-x="663" 
d="M85 -147q-13 0 -23 10t-10 23q0 14 10 23.5t23 9.5h493q14 0 23.5 -9.5t9.5 -23.5q0 -13 -9.5 -23t-23.5 -10h-493z" />
    <glyph glyph-name="grave" unicode="`" horiz-adv-x="246" 
d="M200 567q-13 0 -22 11l-69 82q-10 11 -10 25q0 17 10.5 27t26.5 10q13 0 21 -5.5t12 -13.5l51 -90q2 -2 4.5 -7.5t2.5 -11.5q0 -12 -7.5 -19.5t-19.5 -7.5z" />
    <glyph glyph-name="a" unicode="a" horiz-adv-x="562" 
d="M209 -10q-43 0 -80.5 18t-60 51.5t-22.5 80.5q0 71 56.5 116.5t173.5 45.5h121v8q0 67 -33 95.5t-101 28.5q-42 0 -73.5 -7.5t-59.5 -16.5q-8 -2 -13 -2q-15 0 -26 11t-11 27q0 27 26 38q35 15 77.5 25.5t95.5 10.5q73 0 119 -29t68 -74t22 -94v-283q0 -19 -13.5 -32
t-32.5 -13t-32 13t-13 32v26q-27 -28 -72 -52t-116 -24zM243 70q47 0 88 23t66 52v84h-109q-70 0 -110.5 -18t-40.5 -61q0 -32 22.5 -56t83.5 -24z" />
    <glyph glyph-name="b" unicode="b" horiz-adv-x="631" 
d="M341 -10q-52 0 -94 20t-77 56v-26q0 -19 -13 -32t-33 -13q-19 0 -32 13t-13 32v649q0 20 13 33t32 13q20 0 33 -13t13 -33v-245q35 36 77 56t94 20q61 0 116 -31t90.5 -90t35.5 -144t-35.5 -144t-90.5 -90t-116 -31zM328 75q71 0 117.5 46t46.5 134q0 89 -46.5 134.5
t-117.5 45.5q-49 0 -89 -21.5t-69 -53.5v-210q29 -32 69 -53.5t89 -21.5z" />
    <glyph glyph-name="c" unicode="c" horiz-adv-x="533" 
d="M315 -10q-71 0 -132 31.5t-98 91t-37 142.5q0 84 37 143t98 90.5t132 31.5q59 0 98.5 -15.5t64.5 -32.5q20 -13 20 -35q0 -14 -11 -27t-27 -13q-11 0 -22 6q-26 14 -51 23t-64 9q-87 0 -135.5 -50t-48.5 -130t48.5 -130t135.5 -50q39 0 64 9.5t51 22.5q11 6 22 6
q16 0 27 -13t11 -27q0 -22 -20 -35q-25 -16 -64.5 -32t-98.5 -16z" />
    <glyph glyph-name="d" unicode="d" horiz-adv-x="631" 
d="M290 -10q-60 0 -115.5 31t-91 90t-35.5 144t35.5 144t91 90t115.5 31q53 0 95 -20t76 -56v245q0 20 13.5 33t32.5 13t32 -13t13 -33v-649q0 -19 -13 -32t-32 -13t-32.5 13t-13.5 32v26q-34 -36 -76 -56t-95 -20zM303 75q49 0 89 21.5t69 53.5v210q-29 32 -69 53.5
t-89 21.5q-71 0 -117.5 -45.5t-46.5 -134.5q0 -88 46.5 -134t117.5 -46z" />
    <glyph glyph-name="e" unicode="e" horiz-adv-x="566" 
d="M307 -10q-122 0 -190.5 69.5t-68.5 195.5q0 68 25 128.5t78 98.5t136 38q77 0 130 -35.5t80.5 -92.5t27.5 -124q0 -19 -12.5 -32t-33.5 -13h-339q8 -67 51 -107.5t124 -40.5q45 0 76 8.5t59 22.5q8 4 18 4q16 0 28 -11t12 -28q0 -12 -7.5 -21.5t-18.5 -15.5
q-33 -19 -71.5 -31.5t-103.5 -12.5zM140 297h295q-3 52 -26.5 84t-56.5 47t-65 15t-65 -15t-56 -47t-26 -84z" />
    <glyph glyph-name="f" unicode="f" horiz-adv-x="382" 
d="M162 -5q-19 0 -32 13t-13 32v392h-59q-16 0 -27.5 11.5t-11.5 27.5q0 17 11.5 28t27.5 11h59v58q0 63 22.5 101t57.5 54.5t70 16.5q25 0 47 -5.5t40 -14.5q9 -4 16 -13.5t7 -21.5q0 -14 -10.5 -26t-26.5 -12q-12 0 -24 3t-26 3q-37 0 -59.5 -17.5t-22.5 -70.5v-55h125
q17 0 28 -11t11 -28q0 -16 -11 -27.5t-28 -11.5h-125v-392q0 -19 -13 -32t-33 -13z" />
    <glyph glyph-name="g" unicode="g" horiz-adv-x="631" 
d="M317 -240q-61 0 -120 16t-94 36q-7 5 -12.5 13t-5.5 22q0 15 11.5 28t28.5 13q5 0 9.5 -1t8.5 -3q32 -16 73 -27t92 -11q153 0 153 163v67q-31 -33 -73 -54.5t-98 -21.5q-42 0 -84.5 16t-78 48t-57.5 81t-22 115t22 115t57.5 81t78 48t84.5 16q56 0 98 -21.5t73 -54.5v25
q0 19 13 32.5t32 13.5t32.5 -13.5t13.5 -32.5v-447q0 -126 -61 -194t-174 -68zM309 83q52 0 88 23t64 51v206q-28 29 -64 51.5t-88 22.5q-47 0 -86 -19t-61.5 -58.5t-22.5 -99.5t22.5 -99.5t61.5 -58.5t86 -19z" />
    <glyph glyph-name="h" unicode="h" horiz-adv-x="609" 
d="M124 -5q-19 0 -32 13t-13 32v649q0 20 13 33t32 13t32.5 -13t13.5 -33v-261q32 35 75.5 63.5t110.5 28.5q57 0 97 -26.5t61 -71t21 -98.5v-284q0 -19 -13.5 -32t-32.5 -13t-32 13t-13 32v274q0 57 -25.5 89.5t-84.5 32.5q-54 0 -94 -29t-70 -67v-300q0 -19 -13.5 -32
t-32.5 -13z" />
    <glyph glyph-name="i" unicode="i" horiz-adv-x="249" 
d="M122 614q-21 0 -36 15t-15 36v4q0 21 15 36t36 15h6q21 0 36 -15t15 -36v-4q0 -21 -15 -36t-36 -15h-6zM124 -5q-19 0 -32 13t-13 32v429q0 20 13 33t32 13q20 0 33 -13t13 -33v-429q0 -19 -13 -32t-33 -13z" />
    <glyph glyph-name="j" unicode="j" horiz-adv-x="254" 
d="M127 614q-21 0 -36 15t-15 36v4q0 21 15 36t36 15h6q21 0 36 -15t15 -36v-4q0 -21 -15 -36t-36 -15h-6zM44 -240q-36 0 -63 9q-26 8 -26 36q0 15 11 26.5t27 11.5q7 0 14 -1.5t16 -1.5q26 0 43.5 9.5t17.5 49.5v569q0 20 13 33t32 13q20 0 33 -13t13 -33v-571
q0 -58 -29.5 -97.5t-101.5 -39.5z" />
    <glyph glyph-name="k" unicode="k" horiz-adv-x="545" 
d="M124 -5q-19 0 -32 13t-13 32v649q0 19 13 32.5t32 13.5t32.5 -13.5t13.5 -32.5v-409l238 220q6 5 13.5 9t16.5 4q26 0 35 -14.5t9 -29.5q0 -6 -3 -14.5t-14 -19.5l-144 -129l181 -240q10 -13 10 -27q0 -20 -13 -32t-33 -12q-21 0 -37 19l-172 234l-87 -79v-129
q0 -19 -13.5 -32t-32.5 -13z" />
    <glyph glyph-name="l" unicode="l" horiz-adv-x="249" 
d="M124 -5q-19 0 -32 13t-13 32v649q0 20 13 33t32 13q20 0 33 -13t13 -33v-649q0 -19 -13 -32t-33 -13z" />
    <glyph glyph-name="m" unicode="m" horiz-adv-x="918" 
d="M124 -5q-19 0 -32 13t-13 32v429q0 19 13 32.5t32 13.5t32.5 -13.5t13.5 -32.5v-41q14 20 35.5 41t54.5 36t80 15q60 0 98.5 -32t54.5 -71q12 19 34 43t58.5 42t91.5 18q59 0 96 -29.5t54 -73.5t17 -89v-288q0 -19 -13.5 -32t-32.5 -13t-32 13t-13 32v270
q0 63 -22.5 94.5t-79.5 31.5q-38 0 -65 -14.5t-46 -36.5t-33 -45v-300q0 -19 -13.5 -32t-32.5 -13t-32 13t-13 32v270q0 63 -22.5 94.5t-79.5 31.5q-38 0 -65 -14.5t-46 -36.5t-33 -45v-300q0 -19 -13.5 -32t-32.5 -13z" />
    <glyph glyph-name="n" unicode="n" horiz-adv-x="609" 
d="M124 -5q-19 0 -32 13t-13 32v429q0 20 13 33t32 13t32.5 -13t13.5 -33v-41q32 35 75.5 63.5t110.5 28.5q57 0 97 -26.5t61 -71t21 -98.5v-284q0 -19 -13.5 -32t-32.5 -13t-32 13t-13 32v274q0 57 -25.5 89.5t-84.5 32.5q-54 0 -94 -29t-70 -67v-300q0 -19 -13.5 -32
t-32.5 -13z" />
    <glyph glyph-name="o" unicode="o" horiz-adv-x="608" 
d="M304 -10q-77 0 -135 33.5t-89.5 93t-31.5 138.5t31.5 138.5t89.5 93t135 33.5t134.5 -33.5t89.5 -93t32 -138.5t-32 -138.5t-89.5 -93t-134.5 -33.5zM304 73q38 0 76 18t63.5 58.5t25.5 106.5t-25.5 106t-63.5 57.5t-76 17.5t-76.5 -17.5t-63.5 -57.5t-25 -106t25 -106.5
t63.5 -58.5t76.5 -18z" />
    <glyph glyph-name="p" unicode="p" horiz-adv-x="631" 
d="M124 -235q-19 0 -32 13.5t-13 32.5v659q0 19 13 32t32 13q20 0 33 -13t13 -32v-26q35 36 77 56t94 20q61 0 116 -31t90.5 -90t35.5 -144t-35.5 -144t-90.5 -90t-116 -31q-52 0 -94 20t-77 56v-255q0 -19 -13 -32.5t-33 -13.5zM328 75q71 0 117.5 46t46.5 134
q0 89 -46.5 134.5t-117.5 45.5q-49 0 -89 -21.5t-69 -53.5v-210q29 -32 69 -53.5t89 -21.5z" />
    <glyph glyph-name="q" unicode="q" horiz-adv-x="631" 
d="M507 -235q-19 0 -32.5 13.5t-13.5 32.5v255q-34 -36 -76 -56t-95 -20q-60 0 -115.5 31t-91 90t-35.5 144t35.5 144t91 90t115.5 31q53 0 95 -20t76 -56v26q0 19 13.5 32t32.5 13t32 -13t13 -32v-659q0 -19 -13 -32.5t-32 -13.5zM303 75q49 0 89 21.5t69 53.5v210
q-29 32 -69 53.5t-89 21.5q-71 0 -117.5 -45.5t-46.5 -134.5q0 -88 46.5 -134t117.5 -46z" />
    <glyph glyph-name="r" unicode="r" horiz-adv-x="383" 
d="M124 -5q-19 0 -32 13t-13 32v429q0 19 13 32.5t32 13.5t32.5 -13.5t13.5 -32.5v-43q27 36 66 65t91 29h5q19 0 31.5 -13t12.5 -32t-13 -31t-33 -12h-5q-49 0 -89 -24.5t-66 -63.5v-304q0 -19 -13.5 -32t-32.5 -13z" />
    <glyph glyph-name="s" unicode="s" horiz-adv-x="480" 
d="M244 -10q-55 0 -99.5 12t-82.5 33q-17 12 -17 33q0 15 11 27.5t28 12.5q9 0 18 -4q27 -12 59.5 -21t76.5 -9q58 0 84.5 18.5t26.5 52.5q0 22 -21.5 34t-56 20.5t-72.5 18t-72.5 26t-56 45t-21.5 73.5q0 68 49 113t146 45q41 0 77.5 -7t67.5 -18q14 -4 21.5 -15.5
t7.5 -22.5q0 -16 -11.5 -28t-28.5 -12q-4 0 -7 0.5t-6 1.5q-24 8 -52.5 13t-61.5 5q-55 0 -85 -20t-30 -50q0 -26 21.5 -40t56 -22.5t73 -17.5t73 -25.5t56 -45.5t21.5 -78q0 -61 -48.5 -104.5t-144.5 -43.5z" />
    <glyph glyph-name="t" unicode="t" horiz-adv-x="382" 
d="M255 -10q-18 0 -42.5 3.5t-48 16t-39.5 39.5t-16 73v310h-71q-19 0 -19 19q0 10 9 17l136 133q2 2 6.5 5.5t10.5 3.5q8 0 13.5 -6t5.5 -14v-80h113q17 0 28 -11t11 -28q0 -16 -11 -27.5t-28 -11.5h-113v-302q0 -29 11 -42t26.5 -15.5t27.5 -2.5q24 0 35.5 4.5t24.5 4.5
q14 0 25 -10t11 -26q0 -23 -23 -35q-18 -8 -38.5 -13t-44.5 -5z" />
    <glyph glyph-name="u" unicode="u" horiz-adv-x="609" 
d="M253 -10q-57 0 -97 26.5t-61 71.5t-21 98v284q0 19 13.5 32t32.5 13t32 -13t13 -32v-274q0 -57 26 -89.5t84 -32.5q54 0 94 29.5t70 66.5v300q0 19 13.5 32t32.5 13t32 -13t13 -32v-429q0 -19 -13 -32.5t-32 -13.5t-32.5 13.5t-13.5 32.5v41q-31 -34 -75 -63t-111 -29z
" />
    <glyph glyph-name="v" unicode="v" horiz-adv-x="530" 
d="M260 -5q-19 0 -33.5 11t-21.5 26l-174 416q-5 12 -5 21q0 19 13 32.5t32 13.5q14 0 25.5 -7.5t15.5 -18.5l153 -388l153 388q5 11 16.5 18.5t24.5 7.5q19 0 32 -13.5t13 -32.5q0 -9 -5 -21l-174 -416q-7 -15 -21.5 -26t-33.5 -11h-10z" />
    <glyph glyph-name="w" unicode="w" horiz-adv-x="792" 
d="M231 -5q-20 0 -36 12.5t-22 29.5l-142 416q-3 9 -3 17q0 19 13 32t32 13q14 0 25.5 -7t15.5 -20l117 -385l116 376q5 16 18.5 26t30.5 10t31 -10t18 -26l116 -376l117 385q4 13 16 20t25 7q19 0 32 -13t13 -32q0 -8 -3 -17l-142 -416q-6 -17 -22 -29.5t-36 -12.5
t-36 12.5t-23 30.5l-106 331l-106 -331q-7 -18 -23 -30.5t-36 -12.5z" />
    <glyph glyph-name="x" unicode="x" horiz-adv-x="541" 
d="M94 -5q-19 0 -31 12.5t-12 33.5q0 15 10 28l155 183l-155 189q-11 14 -11 29q0 21 13 33t32 12q24 0 36 -17l140 -173l139 173q12 17 35 17q20 0 33 -12.5t13 -30.5q0 -15 -10 -28l-158 -186l156 -188q6 -7 8.5 -15t2.5 -14q0 -17 -11.5 -31.5t-34.5 -14.5q-22 0 -35 18
l-142 170l-134 -168q-15 -20 -39 -20z" />
    <glyph glyph-name="y" unicode="y" horiz-adv-x="537" 
d="M193 -235q-18 0 -30.5 13t-12.5 31q0 9 3 16l65 167l-188 458q-1 4 -2.5 9t-1.5 10q0 19 13 32.5t32 13.5q14 0 25.5 -8t16.5 -20l154 -382l157 380q6 14 16.5 22t25.5 8q19 0 32 -13.5t13 -32.5q0 -9 -3 -17l-273 -656q-6 -13 -16 -22t-26 -9z" />
    <glyph glyph-name="z" unicode="z" horiz-adv-x="498" 
d="M103 0q-26 0 -44.5 13.5t-18.5 39.5q0 23 16 41l288 331h-253q-18 0 -30 12t-12 30t12 30.5t30 12.5h303q26 0 42 -15.5t16 -41.5q0 -23 -14 -40l-280 -328h257q18 0 30.5 -12.5t12.5 -30.5t-12.5 -30t-30.5 -12h-312z" />
    <glyph glyph-name="braceleft" unicode="{" horiz-adv-x="344" 
d="M269 -145q-40 0 -71.5 9.5t-50 35.5t-18.5 75v211q0 17 -4.5 32.5t-23.5 28.5t-64 20q-17 3 -25.5 14t-8.5 26t8.5 26t25.5 14q45 8 64 20.5t23.5 28.5t4.5 32v211q0 49 18.5 75t50 35.5t71.5 9.5h12q14 0 24.5 -10.5t10.5 -24.5t-10.5 -24.5t-24.5 -10.5h-15
q-28 0 -40.5 -7t-15.5 -16.5t-3 -18.5v-222q0 -45 -23 -73.5t-67 -44.5q44 -16 67 -44.5t23 -73.5v-222q0 -8 3 -18t15.5 -17t40.5 -7h15q14 0 24.5 -10.5t10.5 -24.5t-10.5 -24.5t-24.5 -10.5h-12z" />
    <glyph glyph-name="bar" unicode="|" horiz-adv-x="253" 
d="M126 -196q-17 0 -28.5 11.5t-11.5 28.5v856q0 17 11.5 29t28.5 12t29 -12t12 -29v-856q0 -17 -12 -28.5t-29 -11.5z" />
    <glyph glyph-name="braceright" unicode="}" horiz-adv-x="344" 
d="M63 -145q-14 0 -24.5 10.5t-10.5 24.5t10.5 24.5t24.5 10.5h15q29 0 41 7t15 17t3 18v222q0 45 23.5 73.5t66.5 44.5q-43 16 -66.5 44.5t-23.5 73.5v222q0 9 -3 18.5t-15 16.5t-41 7h-15q-14 0 -24.5 10.5t-10.5 24.5t10.5 24.5t24.5 10.5h12q40 0 71.5 -9.5t50 -35.5
t18.5 -75v-211q0 -16 4.5 -32t24 -28.5t63.5 -20.5q17 -3 25.5 -14t8.5 -26t-8.5 -26t-25.5 -14q-44 -7 -63.5 -20t-24 -28.5t-4.5 -32.5v-211q0 -49 -18.5 -75t-50 -35.5t-71.5 -9.5h-12z" />
    <glyph glyph-name="asciitilde" unicode="~" horiz-adv-x="638" 
d="M440 206q-40 0 -73 11.5t-62 26.5t-56.5 26.5t-54.5 11.5q-30 0 -46.5 -15t-23.5 -39q-5 -19 -24 -19q-10 0 -18 8t-8 18q0 32 17.5 62t46.5 50t63 20q40 0 73.5 -11.5t62.5 -26.5t56.5 -26.5t54.5 -11.5q26 0 37 7.5t17.5 21t16.5 31.5q3 6 9 10.5t15 4.5q10 0 18.5 -7
t5.5 -24q-12 -65 -46.5 -97t-80.5 -32z" />
    <glyph glyph-name="uni00A0" unicode="&#xa0;" horiz-adv-x="260" 
 />
    <glyph glyph-name="exclamdown" unicode="&#xa1;" horiz-adv-x="259" 
d="M130 395q-24 0 -41.5 17.5t-17.5 41.5q0 25 17.5 42.5t41.5 17.5q25 0 42.5 -17.5t17.5 -42.5q0 -24 -17.5 -41.5t-42.5 -17.5zM130 -193q-22 0 -37 15t-15 37v99l18 330q1 13 9.5 21t24.5 8t24 -8t9 -21l18 -330v-99q0 -22 -14.5 -37t-36.5 -15z" />
    <glyph glyph-name="cent" unicode="&#xa2;" horiz-adv-x="551" 
d="M183 -123q-12 0 -20 8.5t-8 19.5q0 7 3 13l33 97q-64 29 -105.5 90.5t-41.5 149.5q0 84 37 143t98 90.5t132 31.5q14 0 27 -1t25 -3l29 85q7 19 27 19q13 0 20.5 -9t7.5 -20q0 -4 -2 -10l-27 -80q17 -6 31 -13.5t25 -15.5q20 -13 20 -35q0 -14 -11 -27t-27 -13
q-11 0 -22 6l-43 20l-118 -344q11 -2 22 -3t24 -1q39 0 64 9.5t51 22.5q11 6 22 6q16 0 27 -13t11 -27q0 -22 -20 -35q-25 -16 -64.5 -32t-98.5 -16q-17 0 -33.5 2t-32.5 6l-35 -103q-6 -18 -27 -18zM220 98l115 336q-4 1 -8 1h-8q-87 0 -135.5 -50t-48.5 -130
q0 -54 22 -94.5t63 -62.5z" />
    <glyph glyph-name="sterling" unicode="&#xa3;" horiz-adv-x="604" 
d="M75 292q-15 0 -25.5 10.5t-10.5 25.5t10.5 26t25.5 11h79q-11 32 -20 65.5t-9 71.5q0 65 31 111t85.5 70.5t126.5 24.5q43 0 78 -8t66 -21q13 -5 21.5 -15t8.5 -25q0 -17 -11.5 -29.5t-30.5 -12.5q-4 0 -10.5 1.5t-8.5 2.5q-25 8 -51 13.5t-58 5.5q-62 0 -96 -17
t-47 -43.5t-13 -53.5q0 -35 10 -70t21 -71h167q15 0 26 -11t11 -26q0 -16 -10 -26t-27 -10h-151q2 -16 2 -31q0 -46 -13 -82t-29 -61q6 0 12 0.5t13 0.5q39 0 70 -10t61 -20.5t66 -10.5q18 0 33 3t30 8q2 1 7 2.5t9 1.5q17 0 29 -11.5t12 -28.5q0 -23 -23 -36t-50 -20
t-56 -7q-31 0 -54.5 7t-44.5 15.5t-44.5 15.5t-55.5 7q-33 0 -60 -10t-48 -24q-11 -8 -23 -8q-15 0 -26 10.5t-11 24.5q0 19 14 31q22 21 43 51t35 67t14 78q0 18 -3 37h-97z" />
    <glyph glyph-name="currency" unicode="&#xa4;" horiz-adv-x="668" 
d="M103 81q-16 0 -26.5 11t-10.5 26t11 26l65 65q-21 30 -33 65.5t-12 74.5t12 74.5t33 65.5l-65 65q-11 11 -11 26t10.5 26t26.5 11q8 0 14 -3t12 -8l66 -65q29 21 64.5 33t74.5 12t74.5 -12t64.5 -33l66 65q6 5 12 8t14 3q17 0 27 -11t10 -26t-11 -26l-65 -65
q21 -30 33 -65.5t12 -74.5t-12 -74.5t-33 -65.5l65 -65q11 -11 11 -26t-10 -26t-27 -11q-8 0 -14 3t-12 8l-66 65q-29 -21 -64.5 -33t-74.5 -12t-74.5 12t-64.5 33l-66 -65q-6 -5 -12 -8t-14 -3zM334 193q43 0 78.5 21t56.5 56.5t21 78.5t-21 78.5t-56.5 56.5t-78.5 21
t-78.5 -21t-56.5 -56.5t-21 -78.5t21 -78.5t56.5 -56.5t78.5 -21z" />
    <glyph glyph-name="yen" unicode="&#xa5;" horiz-adv-x="658" 
d="M329 -6q-18 0 -31.5 13t-13.5 32v112h-141q-16 0 -26.5 10.5t-10.5 26.5t10.5 27t26.5 11h141v64h-141q-16 0 -26.5 10.5t-10.5 26.5t10.5 27t26.5 11h98l-168 274q-8 13 -8 26q0 21 14.5 34t33.5 13q17 0 26.5 -8t16.5 -20l173 -303l173 303q7 12 17 20t26 8
q20 0 34 -13t14 -34q0 -13 -8 -26l-168 -274h98q16 0 26.5 -11t10.5 -27t-10 -26.5t-27 -10.5h-141v-64h141q16 0 26.5 -11t10.5 -27t-10 -26.5t-27 -10.5h-141v-112q0 -19 -13.5 -32t-31.5 -13z" />
    <glyph glyph-name="brokenbar" unicode="&#xa6;" horiz-adv-x="253" 
d="M126 364q-17 0 -28.5 11.5t-11.5 28.5v296q0 17 11.5 29t28.5 12t29 -12t12 -29v-296q0 -17 -12 -28.5t-29 -11.5zM126 -196q-17 0 -28.5 11.5t-11.5 28.5v296q0 17 11.5 29t28.5 12t29 -12t12 -29v-296q0 -17 -12 -28.5t-29 -11.5z" />
    <glyph glyph-name="section" unicode="&#xa7;" horiz-adv-x="529" 
d="M252 -103q-55 0 -103.5 11t-85.5 34q-7 5 -11.5 14t-4.5 19q0 17 11.5 28.5t27.5 11.5q5 0 11 -2t10 -4q27 -13 61.5 -20.5t77.5 -7.5q113 0 113 70q0 25 -22 41.5t-56 29.5t-73 28t-73 35.5t-56 51t-22 76.5q0 56 30 84.5t68 41.5q-28 20 -46 49t-18 72q0 61 48.5 104.5
t144.5 43.5q84 0 150 -27q11 -4 19 -14.5t8 -24.5q0 -16 -12.5 -28t-28.5 -12q-7 0 -15 3q-24 9 -52.5 14t-62.5 5q-113 0 -113 -70q0 -24 22 -41t56 -30.5t73 -28t73 -35t56 -51t22 -76.5q0 -55 -30 -84.5t-69 -42.5q29 -19 47 -48t18 -72q0 -61 -48.5 -104.5t-144.5 -43.5
zM320 198q32 8 53.5 28t21.5 60q0 34 -27.5 53.5t-69 34.5t-83.5 33q-31 -7 -52.5 -27.5t-21.5 -60.5q0 -33 27.5 -53t68.5 -35t83 -33z" />
    <glyph glyph-name="dieresis" unicode="&#xa8;" horiz-adv-x="400" 
d="M284 575q-21 0 -36 15t-15 36t15 36t36 15t36 -15t15 -36t-15 -36t-36 -15zM116 575q-21 0 -36 15t-15 36t15 36t36 15t36 -15t15 -36t-15 -36t-36 -15z" />
    <glyph glyph-name="copyright" unicode="&#xa9;" horiz-adv-x="819" 
d="M410 -9q-74 0 -139 28t-114.5 77t-77.5 114t-28 139t28 139t77.5 114t114.5 77t139 28t139 -28t114.5 -77t77.5 -114t28 -139t-28 -139t-77.5 -114t-114.5 -77t-139 -28zM409 43q64 0 119.5 24t98 66t66.5 97.5t24 118.5t-24 118.5t-66.5 97.5t-98 66t-119.5 24
q-63 0 -118.5 -24t-97.5 -66t-66 -97.5t-24 -118.5t24 -118.5t66 -97.5t97.5 -66t118.5 -24zM416 146q-57 0 -100.5 25t-68 71t-24.5 107q0 62 24.5 107.5t68 70.5t100.5 25q59 0 102 -28t67 -77q3 -6 3 -13q0 -13 -9 -22.5t-23 -9.5q-7 0 -15 4.5t-16 17.5q-16 29 -42.5 48
t-66.5 19q-42 0 -70 -20t-42 -52t-14 -70q0 -37 14 -69.5t42 -52.5t70 -20q40 0 66.5 19t42.5 48q8 14 16 18t15 4q14 0 23 -9t9 -23q0 -7 -3 -13q-24 -49 -67 -77t-102 -28z" />
    <glyph glyph-name="ordfeminine" unicode="&#xaa;" horiz-adv-x="485" 
d="M197 339q-46 0 -81 28.5t-35 78.5t39.5 78.5t121.5 28.5h76v2q0 46 -21.5 65.5t-63.5 19.5q-27 0 -49.5 -4.5t-41.5 -11.5q-6 -2 -10 -2q-13 0 -22.5 9.5t-9.5 22.5q0 10 6.5 18t16.5 12q26 10 56 17t65 7q51 0 83 -20.5t47.5 -52t15.5 -66.5v-191q0 -15 -10.5 -25.5
t-25.5 -10.5t-25.5 10.5t-10.5 25.5v9q-16 -18 -45.5 -33t-75.5 -15zM220 404q29 0 55 14t43 33v48h-68q-45 0 -71 -10.5t-26 -36.5q0 -19 14.5 -33.5t52.5 -14.5zM94 229q-11 0 -19.5 8.5t-8.5 19.5t8.5 19.5t19.5 8.5h283q11 0 19.5 -8.5t8.5 -19.5t-8.5 -19.5t-19.5 -8.5
h-283z" />
    <glyph glyph-name="guillemotleft" unicode="&#xab;" horiz-adv-x="585" 
d="M472 20q-19 0 -28 11l-164 181q-7 8 -12.5 19.5t-5.5 23.5t5.5 23.5t12.5 19.5l164 181q9 11 28 11q17 0 28 -11t11 -28q0 -15 -9 -26l-160 -170l160 -170q9 -10 9 -26q0 -17 -11 -28t-28 -11zM264 20q-19 0 -28 11l-164 181q-7 8 -12.5 19.5t-5.5 23.5t5.5 23.5
t12.5 19.5l164 181q9 11 28 11q17 0 28 -11t11 -28q0 -15 -9 -26l-160 -170l160 -170q9 -10 9 -26q0 -17 -11 -28t-28 -11z" />
    <glyph glyph-name="logicalnot" unicode="&#xac;" horiz-adv-x="579" 
d="M458 168q-16 0 -26.5 10.5t-10.5 26.5v106h-312q-15 0 -25.5 10.5t-10.5 25.5t10.5 25.5t25.5 10.5h345q17 0 29.5 -12.5t12.5 -29.5v-136q0 -16 -11 -26.5t-27 -10.5z" />
    <glyph glyph-name="uni00AD" unicode="&#xad;" horiz-adv-x="408" 
d="M109 240q-17 0 -28.5 11.5t-11.5 28.5t11.5 29t28.5 12h189q17 0 29 -12t12 -29t-12 -28.5t-29 -11.5h-189z" />
    <glyph glyph-name="registered" unicode="&#xae;" horiz-adv-x="819" 
d="M410 -10q-74 0 -139 28t-114.5 77.5t-77.5 114.5t-28 139t28 139t77.5 114.5t114.5 77.5t139 28t139 -28t114.5 -77.5t77.5 -114.5t28 -139t-28 -139t-77.5 -114.5t-114.5 -77.5t-139 -28zM409 42q64 0 119.5 24t98 66.5t66.5 98t24 119.5q0 63 -24 118.5t-66.5 97.5
t-98 66t-119.5 24q-63 0 -118.5 -24t-97.5 -66t-66 -97.5t-24 -118.5q0 -64 24 -119.5t66 -98t97.5 -66.5t118.5 -24zM294 145q-14 0 -23.5 9.5t-9.5 23.5v324q0 19 13 32.5t32 13.5h120q83 0 120 -34.5t37 -85.5q0 -38 -22.5 -62t-51.5 -35q24 -8 46.5 -37t22.5 -88v-27
q0 -14 -10 -24t-24 -10t-24 10t-10 24v18q0 17 -3 41t-18 42.5t-52 18.5h-109v-121q0 -14 -10 -23.5t-24 -9.5zM328 358h95q41 0 67.5 17t26.5 51q0 29 -20.5 46.5t-75.5 17.5h-93v-132z" />
    <glyph glyph-name="macron" unicode="&#xaf;" horiz-adv-x="312" 
d="M83 588q-13 0 -21.5 8.5t-8.5 21.5t8.5 21.5t21.5 8.5h234q13 0 21.5 -8.5t8.5 -21.5t-8.5 -21.5t-21.5 -8.5h-234z" />
    <glyph glyph-name="degree" unicode="&#xb0;" horiz-adv-x="378" 
d="M189 434q-37 0 -68.5 18.5t-50 50t-18.5 68.5q0 38 18.5 69t50 49.5t68.5 18.5q38 0 69 -18.5t49.5 -49.5t18.5 -69q0 -37 -18.5 -68.5t-49.5 -50t-69 -18.5zM189 486q35 0 60 25t25 60t-25 60t-60 25t-60 -25t-25 -60t25 -60t60 -25z" />
    <glyph glyph-name="plusminus" unicode="&#xb1;" horiz-adv-x="606" 
d="M303 145q-16 0 -27.5 11.5t-11.5 27.5v158h-164q-16 0 -27 11t-11 27q0 17 11 28t27 11h164v158q0 17 11.5 28t27.5 11q17 0 28 -11t11 -28v-158h163q17 0 28 -11t11 -28q0 -16 -11 -27t-28 -11h-163v-158q0 -16 -11 -27.5t-28 -11.5zM100 0q-16 0 -27 11t-11 27
q0 17 11 28t27 11h405q17 0 28 -11t11 -28q0 -16 -11 -27t-28 -11h-405z" />
    <glyph glyph-name="uni00B2" unicode="&#xb2;" horiz-adv-x="370" 
d="M77 310q-17 0 -28 12.5t-11 27.5q0 34 22.5 60.5t55.5 48.5t66 42.5t55.5 41.5t22.5 45q0 25 -17.5 42.5t-60.5 17.5q-31 0 -54.5 -6.5t-40.5 -15.5q-6 -3 -13 -3q-12 0 -20 7.5t-8 20.5q0 17 14 25q23 14 56 23.5t74 9.5q59 0 96 -33.5t37 -83.5q0 -34 -18.5 -61.5
t-47 -50t-59 -42t-55.5 -36.5t-36 -33h190q13 0 21.5 -8.5t8.5 -21.5t-8.5 -21t-21.5 -8h-220z" />
    <glyph glyph-name="uni00B3" unicode="&#xb3;" horiz-adv-x="370" 
d="M176 304q-78 0 -123 25q-7 4 -12 11t-5 16q0 12 9 20.5t20 8.5q3 0 5.5 -0.5t5.5 -1.5q17 -5 40 -11t51 -6q39 0 65.5 12t26.5 40q0 62 -112 62h-11q-13 0 -21.5 8.5t-8.5 21.5t8.5 21.5t21.5 8.5h5q43 0 74 12.5t31 45.5q0 29 -25.5 39.5t-52.5 10.5q-28 0 -49 -5.5
t-37 -13.5q-6 -3 -13 -3q-10 0 -19 7.5t-9 19.5q0 16 19 26q24 13 52.5 21.5t59.5 8.5q73 0 104.5 -31t31.5 -75q0 -40 -20.5 -61t-41.5 -29q27 -8 51.5 -30.5t24.5 -66.5q0 -28 -14 -54t-46 -42t-86 -16z" />
    <glyph glyph-name="acute" unicode="&#xb4;" horiz-adv-x="240" 
d="M200 567q-12 0 -19.5 7.5t-7.5 19.5q0 6 3 11.5t4 7.5l51 90q5 8 12.5 13.5t20.5 5.5q17 0 27 -10t10 -27q0 -14 -10 -25l-69 -82q-9 -11 -22 -11z" />
    <glyph glyph-name="uni00B5" unicode="&#xb5;" horiz-adv-x="604" 
d="M129 -218q-19 0 -32 13t-13 32v643q0 19 13.5 32t32.5 13t32 -13t13 -32v-274q0 -57 26 -89.5t84 -32.5q54 0 94 29.5t70 66.5v300q0 19 13.5 32t32.5 13t32 -13t13 -32v-429q0 -19 -13 -32.5t-32 -13.5t-32.5 13.5t-13.5 32.5v41q-21 -23 -46 -44t-57.5 -34.5
t-77.5 -13.5q-29 0 -52.5 8t-40.5 19v-190q0 -19 -13.5 -32t-32.5 -13z" />
    <glyph glyph-name="paragraph" unicode="&#xb6;" horiz-adv-x="732" 
d="M371 -224q-16 0 -27.5 12t-11.5 28v368h-36q-71 0 -129.5 34.5t-93 93t-34.5 129.5t34.5 129.5t93 93t129.5 34.5h352q17 0 28.5 -11.5t11.5 -28.5q0 -16 -11.5 -27.5t-28.5 -11.5h-46v-803q0 -16 -11.5 -28t-28.5 -12q-16 0 -27.5 12t-11.5 28v803h-112v-803
q0 -16 -11.5 -28t-28.5 -12z" />
    <glyph glyph-name="periodcentered" unicode="&#xb7;" horiz-adv-x="260" 
d="M125 226q-23 0 -39.5 16.5t-16.5 39.5v6q0 23 16.5 39.5t39.5 16.5h10q23 0 39.5 -16.5t16.5 -39.5v-6q0 -23 -16.5 -39.5t-39.5 -16.5h-10z" />
    <glyph glyph-name="cedilla" unicode="&#xb8;" horiz-adv-x="307" 
d="M187 -221q-16 0 -40 5t-50 21q-4 2 -7.5 7t-3.5 10q0 8 4.5 14t14.5 6q3 0 6 -1t4 -2q17 -9 31.5 -13t27.5 -4q24 0 40.5 10t16.5 36q0 15 -10.5 23t-25.5 8q-10 0 -20 -2t-24 -9q-1 -1 -4 -2t-6 -1q-7 0 -12.5 4.5t-5.5 11.5q0 5 1.5 8.5t2.5 5.5l64 102h42l-46 -80
q16 4 34 4q34 0 55.5 -19t21.5 -51q0 -46 -29 -69t-82 -23z" />
    <glyph glyph-name="uni00B9" unicode="&#xb9;" horiz-adv-x="370" 
d="M108 310q-13 0 -21 8t-8 21t8 21.5t21 8.5h60v265l-45 -22q-4 -1 -7 -2.5t-8 -1.5q-12 0 -21 8.5t-9 21.5q0 19 19 28l72 37q10 5 20 5q20 0 31.5 -12.5t11.5 -30.5v-296h50q13 0 21.5 -8.5t8.5 -21.5t-8.5 -21t-21.5 -8h-174z" />
    <glyph glyph-name="ordmasculine" unicode="&#xba;" horiz-adv-x="514" 
d="M257 339q-81 0 -129.5 51.5t-48.5 133.5q0 83 48.5 133.5t129.5 50.5t129.5 -50.5t48.5 -133.5q0 -82 -48.5 -133.5t-129.5 -51.5zM257 403q24 0 48.5 12t41 39t16.5 71t-16.5 70t-41 38t-48.5 12t-48.5 -12t-41 -38t-16.5 -70t16.5 -71t41 -39t48.5 -12zM98 229
q-11 0 -19.5 8.5t-8.5 19.5t8.5 19.5t19.5 8.5h318q11 0 19.5 -8.5t8.5 -19.5t-8.5 -19.5t-19.5 -8.5h-318z" />
    <glyph glyph-name="guillemotright" unicode="&#xbb;" horiz-adv-x="585" 
d="M321 20q-16 0 -27.5 11t-11.5 28q0 16 9 26l160 170l-160 170q-9 11 -9 26q0 17 11.5 28t27.5 11q19 0 28 -11l164 -181q8 -8 13 -19.5t5 -23.5t-5 -23.5t-13 -19.5l-164 -181q-9 -11 -28 -11zM113 20q-16 0 -27.5 11t-11.5 28q0 16 9 26l160 170l-160 170q-9 11 -9 26
q0 17 11.5 28t27.5 11q19 0 28 -11l164 -181q8 -8 13 -19.5t5 -23.5t-5 -23.5t-13 -19.5l-164 -181q-9 -11 -28 -11z" />
    <glyph glyph-name="onequarter" unicode="&#xbc;" horiz-adv-x="891" 
d="M108 310q-13 0 -21 8t-8 21t8 21.5t21 8.5h60v265l-45 -22q-4 -1 -7 -2.5t-8 -1.5q-12 0 -21 8.5t-9 21.5q0 19 19 28l72 37q10 5 20 5q20 0 31.5 -12.5t11.5 -30.5v-296h50q13 0 21.5 -8.5t8.5 -21.5t-8.5 -21t-21.5 -8h-174zM259 -24q-13 0 -23.5 9.5t-10.5 24.5
q0 8 5 18l414 682q5 8 12.5 11t15.5 3q14 0 24 -9.5t10 -24.5q0 -8 -5 -18l-414 -682q-4 -7 -12 -10.5t-16 -3.5zM769 -5q-13 0 -22.5 9.5t-9.5 22.5v69h-156q-17 0 -29.5 12.5t-12.5 29.5q0 15 11 29l165 211q7 8 15.5 14.5t20.5 6.5h8q18 0 30 -12.5t12 -29.5v-202h36
q13 0 21.5 -8.5t8.5 -21.5t-8.5 -21t-21.5 -8h-36v-69q0 -13 -9 -22.5t-23 -9.5zM610 155h127v165z" />
    <glyph glyph-name="onehalf" unicode="&#xbd;" horiz-adv-x="931" 
d="M108 310q-13 0 -21 8t-8 21t8 21.5t21 8.5h60v265l-45 -22q-4 -1 -7 -2.5t-8 -1.5q-12 0 -21 8.5t-9 21.5q0 19 19 28l72 37q10 5 20 5q20 0 31.5 -12.5t11.5 -30.5v-296h50q13 0 21.5 -8.5t8.5 -21.5t-8.5 -21t-21.5 -8h-174zM259 -24q-13 0 -23.5 9.5t-10.5 24.5
q0 8 5 18l414 682q5 8 12.5 11t15.5 3q14 0 24 -9.5t10 -24.5q0 -8 -5 -18l-414 -682q-4 -7 -12 -10.5t-16 -3.5zM638 0q-17 0 -28 12.5t-11 27.5q0 34 22.5 60.5t55.5 48.5t66 42.5t55.5 41.5t22.5 45q0 25 -17.5 42.5t-60.5 17.5q-31 0 -54.5 -6.5t-40.5 -15.5
q-6 -3 -13 -3q-12 0 -20 7.5t-8 20.5q0 17 14 25q23 14 56 23.5t74 9.5q59 0 96 -33.5t37 -83.5q0 -34 -18.5 -61.5t-47 -50t-59 -42t-55.5 -36.5t-36 -33h190q13 0 21.5 -8.5t8.5 -21.5t-8.5 -21t-21.5 -8h-220z" />
    <glyph glyph-name="threequarters" unicode="&#xbe;" horiz-adv-x="891" 
d="M176 304q-78 0 -123 25q-7 4 -12 11t-5 16q0 12 9 20.5t20 8.5q3 0 5.5 -0.5t5.5 -1.5q17 -5 40 -11t51 -6q39 0 65.5 12t26.5 40q0 62 -112 62h-11q-13 0 -21.5 8.5t-8.5 21.5t8.5 21.5t21.5 8.5h5q43 0 74 12.5t31 45.5q0 29 -25.5 39.5t-52.5 10.5q-28 0 -49 -5.5
t-37 -13.5q-6 -3 -13 -3q-10 0 -19 7.5t-9 19.5q0 16 19 26q24 13 52.5 21.5t59.5 8.5q73 0 104.5 -31t31.5 -75q0 -40 -20.5 -61t-41.5 -29q27 -8 51.5 -30.5t24.5 -66.5q0 -28 -14 -54t-46 -42t-86 -16zM259 -24q-13 0 -23.5 9.5t-10.5 24.5q0 8 5 18l414 682q5 8 12.5 11
t15.5 3q14 0 24 -9.5t10 -24.5q0 -8 -5 -18l-414 -682q-4 -7 -12 -10.5t-16 -3.5zM769 -5q-13 0 -22.5 9.5t-9.5 22.5v69h-156q-17 0 -29.5 12.5t-12.5 29.5q0 15 11 29l165 211q7 8 15.5 14.5t20.5 6.5h8q18 0 30 -12.5t12 -29.5v-202h36q13 0 21.5 -8.5t8.5 -21.5
t-8.5 -21t-21.5 -8h-36v-69q0 -13 -9 -22.5t-23 -9.5zM610 155h127v165z" />
    <glyph glyph-name="questiondown" unicode="&#xbf;" horiz-adv-x="488" 
d="M273 395q-25 0 -42.5 17.5t-17.5 41.5q0 25 17.5 42.5t42.5 17.5q24 0 41.5 -17.5t17.5 -42.5q0 -24 -17.5 -41.5t-41.5 -17.5zM265 -198q-102 0 -163.5 51t-61.5 138q0 48 19 80t47 55.5t55.5 45.5t46.5 48.5t19 64.5q0 17 13.5 28t30.5 11q19 0 31.5 -11.5t12.5 -27.5
q0 -51 -18.5 -86.5t-46 -61t-55.5 -46.5t-46.5 -43.5t-18.5 -51.5q0 -51 33.5 -80t109.5 -29q34 0 68 8.5t60 24.5q12 8 25 8q17 0 28.5 -11.5t11.5 -28.5q0 -14 -7.5 -23t-17.5 -15q-42 -26 -84 -37t-92 -11z" />
    <glyph glyph-name="Agrave" unicode="&#xc0;" horiz-adv-x="746" 
d="M95 -5q-21 0 -33 13t-12 32q0 8 5 20l255 602q7 16 21.5 28.5t36.5 12.5h10q23 0 37 -12.5t21 -28.5l255 -602q5 -12 5 -20q0 -19 -12 -32t-33 -13q-31 0 -43 28l-65 156h-340l-65 -156q-12 -28 -43 -28zM238 262h270l-135 325zM373 739q-13 0 -22 11l-69 82
q-10 11 -10 25q0 17 10.5 27t26.5 10q13 0 21 -5.5t12 -13.5l51 -90q2 -2 4.5 -7.5t2.5 -11.5q0 -12 -7.5 -19.5t-19.5 -7.5z" />
    <glyph glyph-name="Aacute" unicode="&#xc1;" horiz-adv-x="746" 
d="M95 -5q-21 0 -33 13t-12 32q0 8 5 20l255 602q7 16 21.5 28.5t36.5 12.5h10q23 0 37 -12.5t21 -28.5l255 -602q5 -12 5 -20q0 -19 -12 -32t-33 -13q-31 0 -43 28l-65 156h-340l-65 -156q-12 -28 -43 -28zM238 262h270l-135 325zM373 739q-12 0 -19.5 7.5t-7.5 19.5
q0 6 3 11.5t4 7.5l51 90q5 8 12.5 13.5t20.5 5.5q17 0 27 -10t10 -27q0 -14 -10 -25l-69 -82q-9 -11 -22 -11z" />
    <glyph glyph-name="Acircumflex" unicode="&#xc2;" horiz-adv-x="746" 
d="M95 -5q-21 0 -33 13t-12 32q0 8 5 20l255 602q7 16 21.5 28.5t36.5 12.5h10q23 0 37 -12.5t21 -28.5l255 -602q5 -12 5 -20q0 -19 -12 -32t-33 -13q-31 0 -43 28l-65 156h-340l-65 -156q-12 -28 -43 -28zM238 262h270l-135 325zM268 738q-13 0 -22 9.5t-8 20.5q0 11 8 19
l68 70q8 8 17 14t23 6h38q14 0 23.5 -6t16.5 -14l68 -70q8 -8 8 -19q1 -11 -8 -20.5t-22 -9.5q-11 0 -18 7l-87 74l-87 -74q-7 -7 -18 -7z" />
    <glyph glyph-name="Atilde" unicode="&#xc3;" horiz-adv-x="746" 
d="M95 -5q-21 0 -33 13t-12 32q0 8 5 20l255 602q7 16 21.5 28.5t36.5 12.5h10q23 0 37 -12.5t21 -28.5l255 -602q5 -12 5 -20q0 -19 -12 -32t-33 -13q-31 0 -43 28l-65 156h-340l-65 -156q-12 -28 -43 -28zM238 262h270l-135 325zM235 743q-9 0 -16 6.5t-7 16.5q0 20 10 42
t29 37.5t45 15.5q29 0 54 -11.5t49 -23.5t51 -12q16 0 24.5 7t12.5 20q3 8 8.5 14.5t16.5 6.5t16.5 -6.5t6.5 -15.5q0 -21 -10.5 -43t-29.5 -37t-44 -15q-30 0 -55 12t-49 24t-50 12q-15 0 -24 -9t-15 -23q-2 -7 -7.5 -12.5t-15.5 -5.5z" />
    <glyph glyph-name="Adieresis" unicode="&#xc4;" horiz-adv-x="746" 
d="M95 -5q-21 0 -33 13t-12 32q0 8 5 20l255 602q7 16 21.5 28.5t36.5 12.5h10q23 0 37 -12.5t21 -28.5l255 -602q5 -12 5 -20q0 -19 -12 -32t-33 -13q-31 0 -43 28l-65 156h-340l-65 -156q-12 -28 -43 -28zM238 262h270l-135 325zM457 747q-21 0 -36 15t-15 36t15 36t36 15
t36 -15t15 -36t-15 -36t-36 -15zM289 747q-21 0 -36 15t-15 36t15 36t36 15t36 -15t15 -36t-15 -36t-36 -15z" />
    <glyph glyph-name="Aring" unicode="&#xc5;" horiz-adv-x="746" 
d="M95 -5q-21 0 -33 13t-12 32q0 8 5 20l255 602q7 16 21.5 28.5t36.5 12.5h10q23 0 37 -12.5t21 -28.5l255 -602q5 -12 5 -20q0 -19 -12 -32t-33 -13q-31 0 -43 28l-65 156h-340l-65 -156q-12 -28 -43 -28zM238 262h270l-135 325zM373 723q-39 0 -66.5 27.5t-27.5 66.5
t27.5 66.5t66.5 27.5t66.5 -27.5t27.5 -66.5t-27.5 -66.5t-66.5 -27.5zM373 768q20 0 34.5 14.5t14.5 34.5t-14.5 34.5t-34.5 14.5t-34.5 -14.5t-14.5 -34.5t14.5 -34.5t34.5 -14.5z" />
    <glyph glyph-name="AE" unicode="&#xc6;" horiz-adv-x="1040" 
d="M48 -5q-19 0 -32.5 13t-13.5 32q0 8 3 14.5t7 13.5l399 605q17 25 46 25h488q18 0 30.5 -12.5t12.5 -30.5t-12.5 -30t-30.5 -12h-355v-221h319q18 0 30.5 -12.5t12.5 -30.5t-12.5 -30t-30.5 -12h-319v-222h355q18 0 30.5 -12.5t12.5 -30.5t-12.5 -30t-30.5 -12h-401
q-19 0 -32 13t-13 32v134h-308l-102 -158q-7 -10 -17 -18t-24 -8zM245 262h254v351h-25z" />
    <glyph glyph-name="Ccedilla" unicode="&#xc7;" horiz-adv-x="695" 
d="M405 -10q-99 0 -178.5 43.5t-125.5 124t-46 191.5q0 112 46 192t125.5 123.5t178.5 43.5q74 0 128 -18t100 -44q10 -5 15.5 -13.5t6.5 -22.5q1 -16 -10 -28t-30 -12q-10 0 -18 4q-40 21 -82 34t-101 13q-88 0 -148 -36t-90 -97.5t-30 -138.5t30 -138.5t90 -97.5t148 -36
q59 0 101 13t82 34q8 4 18 4q19 0 30 -12t10 -28q-1 -14 -6.5 -22.5t-15.5 -13.5q-46 -26 -100 -44t-128 -18zM382 -221q-16 0 -40 5t-50 21q-4 2 -7.5 7t-3.5 10q0 8 4.5 14t14.5 6q3 0 6 -1t4 -2q17 -9 31.5 -13t27.5 -4q24 0 40.5 10t16.5 36q0 15 -10.5 23t-25.5 8
q-10 0 -20 -2t-24 -9q-1 -1 -4 -2t-6 -1q-7 0 -12.5 4.5t-5.5 11.5q0 5 1.5 8.5t2.5 5.5l64 102h42l-46 -80q16 4 34 4q34 0 55.5 -19t21.5 -51q0 -46 -29 -69t-82 -23z" />
    <glyph glyph-name="Egrave" unicode="&#xc8;" horiz-adv-x="638" 
d="M142 0q-19 0 -32 13t-13 32v607q0 19 13 32.5t32 13.5h401q18 0 30.5 -12.5t12.5 -30.5t-12.5 -30t-30.5 -12h-355v-221h319q18 0 30.5 -12.5t12.5 -30.5t-12.5 -30t-30.5 -12h-319v-222h355q18 0 30.5 -12.5t12.5 -30.5t-12.5 -30t-30.5 -12h-401zM342 739q-13 0 -22 11
l-69 82q-10 11 -10 25q0 17 10.5 27t26.5 10q13 0 21 -5.5t12 -13.5l51 -90q2 -2 4.5 -7.5t2.5 -11.5q0 -12 -7.5 -19.5t-19.5 -7.5z" />
    <glyph glyph-name="Eacute" unicode="&#xc9;" horiz-adv-x="638" 
d="M142 0q-19 0 -32 13t-13 32v607q0 19 13 32.5t32 13.5h401q18 0 30.5 -12.5t12.5 -30.5t-12.5 -30t-30.5 -12h-355v-221h319q18 0 30.5 -12.5t12.5 -30.5t-12.5 -30t-30.5 -12h-319v-222h355q18 0 30.5 -12.5t12.5 -30.5t-12.5 -30t-30.5 -12h-401zM342 739
q-12 0 -19.5 7.5t-7.5 19.5q0 6 3 11.5t4 7.5l51 90q5 8 12.5 13.5t20.5 5.5q17 0 27 -10t10 -27q0 -14 -10 -25l-69 -82q-9 -11 -22 -11z" />
    <glyph glyph-name="Ecircumflex" unicode="&#xca;" horiz-adv-x="638" 
d="M142 0q-19 0 -32 13t-13 32v607q0 19 13 32.5t32 13.5h401q18 0 30.5 -12.5t12.5 -30.5t-12.5 -30t-30.5 -12h-355v-221h319q18 0 30.5 -12.5t12.5 -30.5t-12.5 -30t-30.5 -12h-319v-222h355q18 0 30.5 -12.5t12.5 -30.5t-12.5 -30t-30.5 -12h-401zM237 738
q-13 0 -22 9.5t-8 20.5q0 11 8 19l68 70q8 8 17 14t23 6h38q14 0 23.5 -6t16.5 -14l68 -70q8 -8 8 -19q1 -11 -8 -20.5t-22 -9.5q-11 0 -18 7l-87 74l-87 -74q-7 -7 -18 -7z" />
    <glyph glyph-name="Edieresis" unicode="&#xcb;" horiz-adv-x="638" 
d="M142 0q-19 0 -32 13t-13 32v607q0 19 13 32.5t32 13.5h401q18 0 30.5 -12.5t12.5 -30.5t-12.5 -30t-30.5 -12h-355v-221h319q18 0 30.5 -12.5t12.5 -30.5t-12.5 -30t-30.5 -12h-319v-222h355q18 0 30.5 -12.5t12.5 -30.5t-12.5 -30t-30.5 -12h-401zM426 747q-21 0 -36 15
t-15 36t15 36t36 15t36 -15t15 -36t-15 -36t-36 -15zM258 747q-21 0 -36 15t-15 36t15 36t36 15t36 -15t15 -36t-15 -36t-36 -15z" />
    <glyph glyph-name="Igrave" unicode="&#xcc;" horiz-adv-x="285" 
d="M142 -5q-19 0 -32 13t-13 32v617q0 19 13 32.5t32 13.5t32.5 -13.5t13.5 -32.5v-617q0 -19 -13.5 -32t-32.5 -13zM143 739q-13 0 -22 11l-69 82q-10 11 -10 25q0 17 10.5 27t26.5 10q13 0 21 -5.5t12 -13.5l51 -90q2 -2 4.5 -7.5t2.5 -11.5q0 -12 -7.5 -19.5t-19.5 -7.5z
" />
    <glyph glyph-name="Iacute" unicode="&#xcd;" horiz-adv-x="285" 
d="M142 -5q-19 0 -32 13t-13 32v617q0 19 13 32.5t32 13.5t32.5 -13.5t13.5 -32.5v-617q0 -19 -13.5 -32t-32.5 -13zM143 739q-12 0 -19.5 7.5t-7.5 19.5q0 6 3 11.5t4 7.5l51 90q5 8 12.5 13.5t20.5 5.5q17 0 27 -10t10 -27q0 -14 -10 -25l-69 -82q-9 -11 -22 -11z" />
    <glyph glyph-name="Icircumflex" unicode="&#xce;" horiz-adv-x="285" 
d="M142 -5q-19 0 -32 13t-13 32v617q0 19 13 32.5t32 13.5t32.5 -13.5t13.5 -32.5v-617q0 -19 -13.5 -32t-32.5 -13zM38 738q-13 0 -22 9.5t-8 20.5q0 11 8 19l68 70q8 8 17 14t23 6h38q14 0 23.5 -6t16.5 -14l68 -70q8 -8 8 -19q1 -11 -8 -20.5t-22 -9.5q-11 0 -18 7
l-87 74l-87 -74q-7 -7 -18 -7z" />
    <glyph glyph-name="Idieresis" unicode="&#xcf;" horiz-adv-x="285" 
d="M142 -5q-19 0 -32 13t-13 32v617q0 19 13 32.5t32 13.5t32.5 -13.5t13.5 -32.5v-617q0 -19 -13.5 -32t-32.5 -13zM227 747q-21 0 -36 15t-15 36t15 36t36 15t36 -15t15 -36t-15 -36t-36 -15zM59 747q-21 0 -36 15t-15 36t15 36t36 15t36 -15t15 -36t-15 -36t-36 -15z" />
    <glyph glyph-name="Eth" unicode="&#xd0;" horiz-adv-x="756" 
d="M147 0q-19 0 -32 13t-13 32v270h-54q-14 0 -23.5 9.5t-9.5 23.5t9.5 24t23.5 10h54v270q0 19 13 32.5t32 13.5h201q90 0 156 -30.5t110 -81t65.5 -112.5t21.5 -125t-21.5 -125t-65.5 -112.5t-110 -81t-156 -30.5h-201zM193 85h144q84 0 145.5 33.5t95 93t33.5 137.5
t-33.5 137.5t-95 93t-145.5 33.5h-144v-231h117q14 0 24 -10t10 -24t-10 -23.5t-24 -9.5h-117v-230z" />
    <glyph glyph-name="Ntilde" unicode="&#xd1;" horiz-adv-x="803" 
d="M142 -5q-19 0 -32 13t-13 32v597q0 27 19 46.5t46 19.5h13q17 0 31 -8t24 -22l385 -556v540q0 19 13 32.5t32 13.5t32.5 -13.5t13.5 -32.5v-597q0 -27 -19.5 -46t-46.5 -19h-12q-16 0 -30 7.5t-23 19.5l-387 559v-541q0 -19 -13.5 -32t-32.5 -13zM264 743q-9 0 -16 6.5
t-7 16.5q0 20 10 42t29 37.5t45 15.5q29 0 54 -11.5t49 -23.5t51 -12q16 0 24.5 7t12.5 20q3 8 8.5 14.5t16.5 6.5t16.5 -6.5t6.5 -15.5q0 -21 -10.5 -43t-29.5 -37t-44 -15q-30 0 -55 12t-49 24t-50 12q-15 0 -24 -9t-15 -23q-2 -7 -7.5 -12.5t-15.5 -5.5z" />
    <glyph glyph-name="Ograve" unicode="&#xd2;" horiz-adv-x="812" 
d="M406 -10q-107 0 -185 46t-121 127t-45 186q2 105 45 186t121 127t185 46t185 -46t121 -127t45 -186q-2 -105 -45 -186t-121 -127t-185 -46zM406 75q83 0 141 36.5t88.5 98.5t30.5 139t-30.5 139t-88.5 98.5t-141 36.5t-141 -36.5t-88.5 -98.5t-30.5 -139t30.5 -139
t88.5 -98.5t141 -36.5zM406 739q-13 0 -22 11l-69 82q-10 11 -10 25q0 17 10.5 27t26.5 10q13 0 21 -5.5t12 -13.5l51 -90q2 -2 4.5 -7.5t2.5 -11.5q0 -12 -7.5 -19.5t-19.5 -7.5z" />
    <glyph glyph-name="Oacute" unicode="&#xd3;" horiz-adv-x="812" 
d="M406 -10q-107 0 -185 46t-121 127t-45 186q2 105 45 186t121 127t185 46t185 -46t121 -127t45 -186q-2 -105 -45 -186t-121 -127t-185 -46zM406 75q83 0 141 36.5t88.5 98.5t30.5 139t-30.5 139t-88.5 98.5t-141 36.5t-141 -36.5t-88.5 -98.5t-30.5 -139t30.5 -139
t88.5 -98.5t141 -36.5zM406 739q-12 0 -19.5 7.5t-7.5 19.5q0 6 3 11.5t4 7.5l51 90q5 8 12.5 13.5t20.5 5.5q17 0 27 -10t10 -27q0 -14 -10 -25l-69 -82q-9 -11 -22 -11z" />
    <glyph glyph-name="Ocircumflex" unicode="&#xd4;" horiz-adv-x="812" 
d="M406 -10q-107 0 -185 46t-121 127t-45 186q2 105 45 186t121 127t185 46t185 -46t121 -127t45 -186q-2 -105 -45 -186t-121 -127t-185 -46zM406 75q83 0 141 36.5t88.5 98.5t30.5 139t-30.5 139t-88.5 98.5t-141 36.5t-141 -36.5t-88.5 -98.5t-30.5 -139t30.5 -139
t88.5 -98.5t141 -36.5zM301 738q-13 0 -22 9.5t-8 20.5q0 11 8 19l68 70q8 8 17 14t23 6h38q14 0 23.5 -6t16.5 -14l68 -70q8 -8 8 -19q1 -11 -8 -20.5t-22 -9.5q-11 0 -18 7l-87 74l-87 -74q-7 -7 -18 -7z" />
    <glyph glyph-name="Otilde" unicode="&#xd5;" horiz-adv-x="812" 
d="M406 -10q-107 0 -185 46t-121 127t-45 186q2 105 45 186t121 127t185 46t185 -46t121 -127t45 -186q-2 -105 -45 -186t-121 -127t-185 -46zM406 75q83 0 141 36.5t88.5 98.5t30.5 139t-30.5 139t-88.5 98.5t-141 36.5t-141 -36.5t-88.5 -98.5t-30.5 -139t30.5 -139
t88.5 -98.5t141 -36.5zM268 743q-9 0 -16 6.5t-7 16.5q0 20 10 42t29 37.5t45 15.5q29 0 54 -11.5t49 -23.5t51 -12q16 0 24.5 7t12.5 20q3 8 8.5 14.5t16.5 6.5t16.5 -6.5t6.5 -15.5q0 -21 -10.5 -43t-29.5 -37t-44 -15q-30 0 -55 12t-49 24t-50 12q-15 0 -24 -9t-15 -23
q-2 -7 -7.5 -12.5t-15.5 -5.5z" />
    <glyph glyph-name="Odieresis" unicode="&#xd6;" horiz-adv-x="812" 
d="M406 -10q-107 0 -185 46t-121 127t-45 186q2 105 45 186t121 127t185 46t185 -46t121 -127t45 -186q-2 -105 -45 -186t-121 -127t-185 -46zM406 75q83 0 141 36.5t88.5 98.5t30.5 139t-30.5 139t-88.5 98.5t-141 36.5t-141 -36.5t-88.5 -98.5t-30.5 -139t30.5 -139
t88.5 -98.5t141 -36.5zM490 747q-21 0 -36 15t-15 36t15 36t36 15t36 -15t15 -36t-15 -36t-36 -15zM322 747q-21 0 -36 15t-15 36t15 36t36 15t36 -15t15 -36t-15 -36t-36 -15z" />
    <glyph glyph-name="multiply" unicode="&#xd7;" horiz-adv-x="563" 
d="M97 36q-16 0 -27 11.5t-11 26.5t12 27l157 157l-157 157q-12 12 -12 27t11 26.5t27 11.5q15 0 27 -12l157 -157l157 157q12 12 27 12q17 0 27.5 -11.5t10.5 -26.5t-12 -27l-157 -157l157 -157q12 -12 12 -27t-10.5 -26.5t-27.5 -11.5q-15 0 -27 12l-157 157l-157 -157
q-12 -12 -27 -12z" />
    <glyph glyph-name="Oslash" unicode="&#xd8;" horiz-adv-x="812" 
d="M158 -30q-11 0 -18 7t-7 17q0 8 6 17l39 55q-58 48 -89.5 121t-33.5 162q2 105 45 186t121 127t185 46q54 0 101.5 -13t86.5 -36l40 58q7 10 21 10q11 0 18 -7t7 -17q0 -8 -6 -17l-39 -56q57 -48 88.5 -120t33.5 -161q-2 -105 -45 -186t-121 -127t-185 -46
q-54 0 -101 12.5t-86 34.5l-40 -57q-7 -10 -21 -10zM229 139l314 449q-28 17 -62.5 26t-74.5 9q-83 0 -141 -36.5t-88.5 -98.5t-30.5 -139q0 -64 21.5 -118t61.5 -92zM406 75q83 0 141 36.5t88.5 98.5t30.5 139q0 63 -21 117.5t-61 91.5l-315 -449q59 -34 137 -34z" />
    <glyph glyph-name="Ugrave" unicode="&#xd9;" horiz-adv-x="758" 
d="M379 -10q-50 0 -101 16t-93 49.5t-67.5 85t-25.5 121.5v395q0 19 13 32.5t32 13.5t32.5 -13.5t13.5 -32.5v-398q0 -62 28.5 -103.5t73.5 -62t94 -20.5t94 20.5t73.5 62t28.5 103.5v398q0 19 13 32.5t32 13.5t32.5 -13.5t13.5 -32.5v-395q0 -70 -25.5 -121.5t-67.5 -85
t-93 -49.5t-101 -16zM379 739q-13 0 -22 11l-69 82q-10 11 -10 25q0 17 10.5 27t26.5 10q13 0 21 -5.5t12 -13.5l51 -90q2 -2 4.5 -7.5t2.5 -11.5q0 -12 -7.5 -19.5t-19.5 -7.5z" />
    <glyph glyph-name="Uacute" unicode="&#xda;" horiz-adv-x="758" 
d="M379 -10q-50 0 -101 16t-93 49.5t-67.5 85t-25.5 121.5v395q0 19 13 32.5t32 13.5t32.5 -13.5t13.5 -32.5v-398q0 -62 28.5 -103.5t73.5 -62t94 -20.5t94 20.5t73.5 62t28.5 103.5v398q0 19 13 32.5t32 13.5t32.5 -13.5t13.5 -32.5v-395q0 -70 -25.5 -121.5t-67.5 -85
t-93 -49.5t-101 -16zM379 739q-12 0 -19.5 7.5t-7.5 19.5q0 6 3 11.5t4 7.5l51 90q5 8 12.5 13.5t20.5 5.5q17 0 27 -10t10 -27q0 -14 -10 -25l-69 -82q-9 -11 -22 -11z" />
    <glyph glyph-name="Ucircumflex" unicode="&#xdb;" horiz-adv-x="758" 
d="M379 -10q-50 0 -101 16t-93 49.5t-67.5 85t-25.5 121.5v395q0 19 13 32.5t32 13.5t32.5 -13.5t13.5 -32.5v-398q0 -62 28.5 -103.5t73.5 -62t94 -20.5t94 20.5t73.5 62t28.5 103.5v398q0 19 13 32.5t32 13.5t32.5 -13.5t13.5 -32.5v-395q0 -70 -25.5 -121.5t-67.5 -85
t-93 -49.5t-101 -16zM274 738q-13 0 -22 9.5t-8 20.5q0 11 8 19l68 70q8 8 17 14t23 6h38q14 0 23.5 -6t16.5 -14l68 -70q8 -8 8 -19q1 -11 -8 -20.5t-22 -9.5q-11 0 -18 7l-87 74l-87 -74q-7 -7 -18 -7z" />
    <glyph glyph-name="Udieresis" unicode="&#xdc;" horiz-adv-x="758" 
d="M379 -10q-50 0 -101 16t-93 49.5t-67.5 85t-25.5 121.5v395q0 19 13 32.5t32 13.5t32.5 -13.5t13.5 -32.5v-398q0 -62 28.5 -103.5t73.5 -62t94 -20.5t94 20.5t73.5 62t28.5 103.5v398q0 19 13 32.5t32 13.5t32.5 -13.5t13.5 -32.5v-395q0 -70 -25.5 -121.5t-67.5 -85
t-93 -49.5t-101 -16zM463 747q-21 0 -36 15t-15 36t15 36t36 15t36 -15t15 -36t-15 -36t-36 -15zM295 747q-21 0 -36 15t-15 36t15 36t36 15t36 -15t15 -36t-15 -36t-36 -15z" />
    <glyph glyph-name="Yacute" unicode="&#xdd;" horiz-adv-x="639" 
d="M320 -5q-19 0 -32.5 13t-13.5 32v255l-239 335q-8 13 -8 27q0 19 12.5 32.5t31.5 13.5q25 0 40 -23l209 -304l209 304q15 23 40 23q20 0 32.5 -13.5t11.5 -32.5q0 -14 -8 -27l-240 -335v-255q0 -19 -13 -32t-32 -13zM320 739q-12 0 -19.5 7.5t-7.5 19.5q0 6 3 11.5t4 7.5
l51 90q5 8 12.5 13.5t20.5 5.5q17 0 27 -10t10 -27q0 -14 -10 -25l-69 -82q-9 -11 -22 -11z" />
    <glyph glyph-name="Thorn" unicode="&#xde;" horiz-adv-x="672" 
d="M142 -5q-19 0 -32 13t-13 32v617q0 19 13 32.5t32 13.5t32.5 -13.5t13.5 -32.5v-71h182q76 0 127.5 -19.5t82 -52t44 -71.5t13.5 -79t-13.5 -79t-44 -71.5t-82 -52t-127.5 -19.5h-182v-102q0 -19 -13.5 -32t-32.5 -13zM188 228h173q75 0 115 20.5t55 52t15 63.5
q0 33 -15 64t-55 51.5t-115 20.5h-173v-272z" />
    <glyph glyph-name="germandbls" unicode="&#xdf;" horiz-adv-x="608" 
d="M373 -10q-33 0 -61 5t-50 12q-13 5 -22.5 14t-9.5 24q0 17 11 28t28 11q8 0 15 -3q30 -10 74 -10q19 0 46 9t47.5 33.5t20.5 71.5q0 59 -49 91.5t-123 32.5q-18 0 -28 10.5t-10 26.5q0 15 11 25t27 12q62 7 97.5 39t35.5 80q0 56 -34.5 88.5t-94.5 32.5q-32 0 -63 -12
t-51 -44t-20 -92v-434q0 -19 -13.5 -32t-32.5 -13t-32 13t-13 32v445q0 72 29 121.5t80 75t117 25.5q38 0 77 -11.5t71 -35.5t51.5 -61t19.5 -88t-16.5 -83t-41.5 -50t-52 -27q31 -7 65.5 -26.5t59 -56t24.5 -95.5q0 -62 -27.5 -103t-71 -61t-91.5 -20z" />
    <glyph glyph-name="agrave" unicode="&#xe0;" horiz-adv-x="562" 
d="M209 -10q-43 0 -80.5 18t-60 51.5t-22.5 80.5q0 71 56.5 116.5t173.5 45.5h121v8q0 67 -33 95.5t-101 28.5q-42 0 -73.5 -7.5t-59.5 -16.5q-8 -2 -13 -2q-15 0 -26 11t-11 27q0 27 26 38q35 15 77.5 25.5t95.5 10.5q73 0 119 -29t68 -74t22 -94v-283q0 -19 -13.5 -32
t-32.5 -13t-32 13t-13 32v26q-27 -28 -72 -52t-116 -24zM243 70q47 0 88 23t66 52v84h-109q-70 0 -110.5 -18t-40.5 -61q0 -32 22.5 -56t83.5 -24zM279 567q-13 0 -22 11l-69 82q-10 11 -10 25q0 17 10.5 27t26.5 10q13 0 21 -5.5t12 -13.5l51 -90q2 -2 4.5 -7.5t2.5 -11.5
q0 -12 -7.5 -19.5t-19.5 -7.5z" />
    <glyph glyph-name="aacute" unicode="&#xe1;" horiz-adv-x="562" 
d="M209 -10q-43 0 -80.5 18t-60 51.5t-22.5 80.5q0 71 56.5 116.5t173.5 45.5h121v8q0 67 -33 95.5t-101 28.5q-42 0 -73.5 -7.5t-59.5 -16.5q-8 -2 -13 -2q-15 0 -26 11t-11 27q0 27 26 38q35 15 77.5 25.5t95.5 10.5q73 0 119 -29t68 -74t22 -94v-283q0 -19 -13.5 -32
t-32.5 -13t-32 13t-13 32v26q-27 -28 -72 -52t-116 -24zM243 70q47 0 88 23t66 52v84h-109q-70 0 -110.5 -18t-40.5 -61q0 -32 22.5 -56t83.5 -24zM279 567q-12 0 -19.5 7.5t-7.5 19.5q0 6 3 11.5t4 7.5l51 90q5 8 12.5 13.5t20.5 5.5q17 0 27 -10t10 -27q0 -14 -10 -25
l-69 -82q-9 -11 -22 -11z" />
    <glyph glyph-name="acircumflex" unicode="&#xe2;" horiz-adv-x="562" 
d="M209 -10q-43 0 -80.5 18t-60 51.5t-22.5 80.5q0 71 56.5 116.5t173.5 45.5h121v8q0 67 -33 95.5t-101 28.5q-42 0 -73.5 -7.5t-59.5 -16.5q-8 -2 -13 -2q-15 0 -26 11t-11 27q0 27 26 38q35 15 77.5 25.5t95.5 10.5q73 0 119 -29t68 -74t22 -94v-283q0 -19 -13.5 -32
t-32.5 -13t-32 13t-13 32v26q-27 -28 -72 -52t-116 -24zM243 70q47 0 88 23t66 52v84h-109q-70 0 -110.5 -18t-40.5 -61q0 -32 22.5 -56t83.5 -24zM174 566q-13 0 -22 9.5t-8 20.5q0 11 8 19l68 70q8 8 17 14t23 6h38q14 0 23.5 -6t16.5 -14l68 -70q8 -8 8 -19
q1 -11 -8 -20.5t-22 -9.5q-11 0 -18 7l-87 74l-87 -74q-7 -7 -18 -7z" />
    <glyph glyph-name="atilde" unicode="&#xe3;" horiz-adv-x="562" 
d="M209 -10q-43 0 -80.5 18t-60 51.5t-22.5 80.5q0 71 56.5 116.5t173.5 45.5h121v8q0 67 -33 95.5t-101 28.5q-42 0 -73.5 -7.5t-59.5 -16.5q-8 -2 -13 -2q-15 0 -26 11t-11 27q0 27 26 38q35 15 77.5 25.5t95.5 10.5q73 0 119 -29t68 -74t22 -94v-283q0 -19 -13.5 -32
t-32.5 -13t-32 13t-13 32v26q-27 -28 -72 -52t-116 -24zM243 70q47 0 88 23t66 52v84h-109q-70 0 -110.5 -18t-40.5 -61q0 -32 22.5 -56t83.5 -24zM141 571q-9 0 -16 6.5t-7 16.5q0 20 10 42t29 37.5t45 15.5q29 0 54 -11.5t49 -23.5t51 -12q16 0 24.5 7t12.5 20
q3 8 8.5 14.5t16.5 6.5t16.5 -6.5t6.5 -15.5q0 -21 -10.5 -43t-29.5 -37t-44 -15q-30 0 -55 12t-49 24t-50 12q-15 0 -24 -9t-15 -23q-2 -7 -7.5 -12.5t-15.5 -5.5z" />
    <glyph glyph-name="adieresis" unicode="&#xe4;" horiz-adv-x="562" 
d="M209 -10q-43 0 -80.5 18t-60 51.5t-22.5 80.5q0 71 56.5 116.5t173.5 45.5h121v8q0 67 -33 95.5t-101 28.5q-42 0 -73.5 -7.5t-59.5 -16.5q-8 -2 -13 -2q-15 0 -26 11t-11 27q0 27 26 38q35 15 77.5 25.5t95.5 10.5q73 0 119 -29t68 -74t22 -94v-283q0 -19 -13.5 -32
t-32.5 -13t-32 13t-13 32v26q-27 -28 -72 -52t-116 -24zM243 70q47 0 88 23t66 52v84h-109q-70 0 -110.5 -18t-40.5 -61q0 -32 22.5 -56t83.5 -24zM363 575q-21 0 -36 15t-15 36t15 36t36 15t36 -15t15 -36t-15 -36t-36 -15zM195 575q-21 0 -36 15t-15 36t15 36t36 15
t36 -15t15 -36t-15 -36t-36 -15z" />
    <glyph glyph-name="aring" unicode="&#xe5;" horiz-adv-x="562" 
d="M209 -10q-43 0 -80.5 18t-60 51.5t-22.5 80.5q0 71 56.5 116.5t173.5 45.5h121v8q0 67 -33 95.5t-101 28.5q-42 0 -73.5 -7.5t-59.5 -16.5q-8 -2 -13 -2q-15 0 -26 11t-11 27q0 27 26 38q35 15 77.5 25.5t95.5 10.5q73 0 119 -29t68 -74t22 -94v-283q0 -19 -13.5 -32
t-32.5 -13t-32 13t-13 32v26q-27 -28 -72 -52t-116 -24zM243 70q47 0 88 23t66 52v84h-109q-70 0 -110.5 -18t-40.5 -61q0 -32 22.5 -56t83.5 -24zM279 551q-39 0 -66.5 27.5t-27.5 66.5t27.5 66.5t66.5 27.5t66.5 -27.5t27.5 -66.5t-27.5 -66.5t-66.5 -27.5zM279 596
q20 0 34.5 14.5t14.5 34.5t-14.5 34.5t-34.5 14.5t-34.5 -14.5t-14.5 -34.5t14.5 -34.5t34.5 -14.5z" />
    <glyph glyph-name="ae" unicode="&#xe6;" horiz-adv-x="911" 
d="M242 -10q-53 0 -97.5 18t-71.5 51.5t-27 80.5q0 71 56.5 115t173.5 44h121v11q0 67 -33 95.5t-101 28.5q-42 0 -73.5 -7.5t-59.5 -16.5q-8 -2 -13 -2q-15 0 -26 11t-11 27q0 27 26 38q35 15 77.5 25.5t95.5 10.5q65 0 107 -23.5t64 -60.5q29 38 73.5 61t107.5 23
q75 0 128.5 -32.5t82 -89.5t28.5 -129q0 -16 -11.5 -29.5t-32.5 -13.5h-344q8 -67 49 -109t128 -42q45 0 76 8.5t59 22.5q8 4 18 4q16 0 28 -11t12 -28q0 -12 -7.5 -21.5t-18.5 -15.5q-33 -19 -71.5 -31.5t-103.5 -12.5q-68 0 -119.5 22.5t-83.5 64.5q-23 -36 -58.5 -55
t-74.5 -25.5t-73 -6.5zM482 299h298q-3 52 -26.5 83.5t-57 46t-65.5 14.5t-65.5 -14.5t-57 -46t-26.5 -83.5zM260 70q31 0 62.5 8t53 29.5t21.5 61.5v57h-109q-70 0 -110.5 -16.5t-40.5 -59.5q0 -32 31 -56t92 -24z" />
    <glyph glyph-name="ccedilla" unicode="&#xe7;" horiz-adv-x="533" 
d="M315 -10q-71 0 -132 31.5t-98 91t-37 142.5q0 84 37 143t98 90.5t132 31.5q59 0 98.5 -15.5t64.5 -32.5q20 -13 20 -35q0 -14 -11 -27t-27 -13q-11 0 -22 6q-26 14 -51 23t-64 9q-87 0 -135.5 -50t-48.5 -130t48.5 -130t135.5 -50q39 0 64 9.5t51 22.5q11 6 22 6
q16 0 27 -13t11 -27q0 -22 -20 -35q-25 -16 -64.5 -32t-98.5 -16zM285 -221q-16 0 -40 5t-50 21q-4 2 -7.5 7t-3.5 10q0 8 4.5 14t14.5 6q3 0 6 -1t4 -2q17 -9 31.5 -13t27.5 -4q24 0 40.5 10t16.5 36q0 15 -10.5 23t-25.5 8q-10 0 -20 -2t-24 -9q-1 -1 -4 -2t-6 -1
q-7 0 -12.5 4.5t-5.5 11.5q0 5 1.5 8.5t2.5 5.5l64 102h42l-46 -80q16 4 34 4q34 0 55.5 -19t21.5 -51q0 -46 -29 -69t-82 -23z" />
    <glyph glyph-name="egrave" unicode="&#xe8;" horiz-adv-x="566" 
d="M307 -10q-122 0 -190.5 69.5t-68.5 195.5q0 68 25 128.5t78 98.5t136 38q77 0 130 -35.5t80.5 -92.5t27.5 -124q0 -19 -12.5 -32t-33.5 -13h-339q8 -67 51 -107.5t124 -40.5q45 0 76 8.5t59 22.5q8 4 18 4q16 0 28 -11t12 -28q0 -12 -7.5 -21.5t-18.5 -15.5
q-33 -19 -71.5 -31.5t-103.5 -12.5zM140 297h295q-3 52 -26.5 84t-56.5 47t-65 15t-65 -15t-56 -47t-26 -84zM285 567q-13 0 -22 11l-69 82q-10 11 -10 25q0 17 10.5 27t26.5 10q13 0 21 -5.5t12 -13.5l51 -90q2 -2 4.5 -7.5t2.5 -11.5q0 -12 -7.5 -19.5t-19.5 -7.5z" />
    <glyph glyph-name="eacute" unicode="&#xe9;" horiz-adv-x="566" 
d="M307 -10q-122 0 -190.5 69.5t-68.5 195.5q0 68 25 128.5t78 98.5t136 38q77 0 130 -35.5t80.5 -92.5t27.5 -124q0 -19 -12.5 -32t-33.5 -13h-339q8 -67 51 -107.5t124 -40.5q45 0 76 8.5t59 22.5q8 4 18 4q16 0 28 -11t12 -28q0 -12 -7.5 -21.5t-18.5 -15.5
q-33 -19 -71.5 -31.5t-103.5 -12.5zM140 297h295q-3 52 -26.5 84t-56.5 47t-65 15t-65 -15t-56 -47t-26 -84zM285 567q-12 0 -19.5 7.5t-7.5 19.5q0 6 3 11.5t4 7.5l51 90q5 8 12.5 13.5t20.5 5.5q17 0 27 -10t10 -27q0 -14 -10 -25l-69 -82q-9 -11 -22 -11z" />
    <glyph glyph-name="ecircumflex" unicode="&#xea;" horiz-adv-x="566" 
d="M307 -10q-122 0 -190.5 69.5t-68.5 195.5q0 68 25 128.5t78 98.5t136 38q77 0 130 -35.5t80.5 -92.5t27.5 -124q0 -19 -12.5 -32t-33.5 -13h-339q8 -67 51 -107.5t124 -40.5q45 0 76 8.5t59 22.5q8 4 18 4q16 0 28 -11t12 -28q0 -12 -7.5 -21.5t-18.5 -15.5
q-33 -19 -71.5 -31.5t-103.5 -12.5zM140 297h295q-3 52 -26.5 84t-56.5 47t-65 15t-65 -15t-56 -47t-26 -84zM180 566q-13 0 -22 9.5t-8 20.5q0 11 8 19l68 70q8 8 17 14t23 6h38q14 0 23.5 -6t16.5 -14l68 -70q8 -8 8 -19q1 -11 -8 -20.5t-22 -9.5q-11 0 -18 7l-87 74
l-87 -74q-7 -7 -18 -7z" />
    <glyph glyph-name="edieresis" unicode="&#xeb;" horiz-adv-x="566" 
d="M307 -10q-122 0 -190.5 69.5t-68.5 195.5q0 68 25 128.5t78 98.5t136 38q77 0 130 -35.5t80.5 -92.5t27.5 -124q0 -19 -12.5 -32t-33.5 -13h-339q8 -67 51 -107.5t124 -40.5q45 0 76 8.5t59 22.5q8 4 18 4q16 0 28 -11t12 -28q0 -12 -7.5 -21.5t-18.5 -15.5
q-33 -19 -71.5 -31.5t-103.5 -12.5zM140 297h295q-3 52 -26.5 84t-56.5 47t-65 15t-65 -15t-56 -47t-26 -84zM369 575q-21 0 -36 15t-15 36t15 36t36 15t36 -15t15 -36t-15 -36t-36 -15zM201 575q-21 0 -36 15t-15 36t15 36t36 15t36 -15t15 -36t-15 -36t-36 -15z" />
    <glyph glyph-name="igrave" unicode="&#xec;" horiz-adv-x="249" 
d="M124 -5q-19 0 -32 13t-13 32v429q0 20 13 33t32 13q20 0 33 -13t13 -33v-429q0 -19 -13 -32t-33 -13zM125 567q-13 0 -22 11l-69 82q-10 11 -10 25q0 17 10.5 27t26.5 10q13 0 21 -5.5t12 -13.5l51 -90q2 -2 4.5 -7.5t2.5 -11.5q0 -12 -7.5 -19.5t-19.5 -7.5z" />
    <glyph glyph-name="iacute" unicode="&#xed;" horiz-adv-x="249" 
d="M124 -5q-19 0 -32 13t-13 32v429q0 20 13 33t32 13q20 0 33 -13t13 -33v-429q0 -19 -13 -32t-33 -13zM125 567q-12 0 -19.5 7.5t-7.5 19.5q0 6 3 11.5t4 7.5l51 90q5 8 12.5 13.5t20.5 5.5q17 0 27 -10t10 -27q0 -14 -10 -25l-69 -82q-9 -11 -22 -11z" />
    <glyph glyph-name="icircumflex" unicode="&#xee;" horiz-adv-x="249" 
d="M124 -5q-19 0 -32 13t-13 32v429q0 20 13 33t32 13q20 0 33 -13t13 -33v-429q0 -19 -13 -32t-33 -13zM20 566q-13 0 -22 9.5t-8 20.5q0 11 8 19l68 70q8 8 17 14t23 6h38q14 0 23.5 -6t16.5 -14l68 -70q8 -8 8 -19q1 -11 -8 -20.5t-22 -9.5q-11 0 -18 7l-87 74l-87 -74
q-7 -7 -18 -7z" />
    <glyph glyph-name="idieresis" unicode="&#xef;" horiz-adv-x="249" 
d="M124 -5q-19 0 -32 13t-13 32v429q0 20 13 33t32 13q20 0 33 -13t13 -33v-429q0 -19 -13 -32t-33 -13zM209 575q-21 0 -36 15t-15 36t15 36t36 15t36 -15t15 -36t-15 -36t-36 -15zM41 575q-21 0 -36 15t-15 36t15 36t36 15t36 -15t15 -36t-15 -36t-36 -15z" />
    <glyph glyph-name="eth" unicode="&#xf0;" horiz-adv-x="593" 
d="M296 -10q-75 0 -130.5 32.5t-86.5 90.5t-31 135q0 67 27.5 125.5t79.5 95t127 36.5q34 0 62 -8t51 -20q-22 32 -49.5 62t-57.5 55l-84 -49l-8 -4t-9 -2q-10 0 -17.5 7.5t-7.5 17.5q0 15 15 23l68 40q-19 13 -37.5 25.5t-38.5 22.5q-9 5 -14.5 15t-5.5 20q0 18 12.5 30
t29.5 12q12 0 22 -6q21 -13 49 -31.5t59 -43.5l68 41q8 5 15 5q11 0 18 -7t7 -18q0 -14 -12 -22l-56 -33q47 -42 89 -96.5t68.5 -121.5t26.5 -145q0 -77 -25 -141.5t-79.5 -103.5t-144.5 -39zM296 70q37 0 74 18t62 58t25 106q0 65 -25 104.5t-62 57t-74 17.5t-74 -17.5
t-61.5 -57t-24.5 -104.5q0 -66 24.5 -106t61.5 -58t74 -18z" />
    <glyph glyph-name="ntilde" unicode="&#xf1;" horiz-adv-x="609" 
d="M124 -5q-19 0 -32 13t-13 32v429q0 20 13 33t32 13t32.5 -13t13.5 -33v-41q32 35 75.5 63.5t110.5 28.5q57 0 97 -26.5t61 -71t21 -98.5v-284q0 -19 -13.5 -32t-32.5 -13t-32 13t-13 32v274q0 57 -25.5 89.5t-84.5 32.5q-54 0 -94 -29t-70 -67v-300q0 -19 -13.5 -32
t-32.5 -13zM167 571q-9 0 -16 6.5t-7 16.5q0 20 10 42t29 37.5t45 15.5q29 0 54 -11.5t49 -23.5t51 -12q16 0 24.5 7t12.5 20q3 8 8.5 14.5t16.5 6.5t16.5 -6.5t6.5 -15.5q0 -21 -10.5 -43t-29.5 -37t-44 -15q-30 0 -55 12t-49 24t-50 12q-15 0 -24 -9t-15 -23
q-2 -7 -7.5 -12.5t-15.5 -5.5z" />
    <glyph glyph-name="ograve" unicode="&#xf2;" horiz-adv-x="608" 
d="M304 -10q-77 0 -135 33.5t-89.5 93t-31.5 138.5t31.5 138.5t89.5 93t135 33.5t134.5 -33.5t89.5 -93t32 -138.5t-32 -138.5t-89.5 -93t-134.5 -33.5zM304 73q38 0 76 18t63.5 58.5t25.5 106.5t-25.5 106t-63.5 57.5t-76 17.5t-76.5 -17.5t-63.5 -57.5t-25 -106t25 -106.5
t63.5 -58.5t76.5 -18zM304 567q-13 0 -22 11l-69 82q-10 11 -10 25q0 17 10.5 27t26.5 10q13 0 21 -5.5t12 -13.5l51 -90q2 -2 4.5 -7.5t2.5 -11.5q0 -12 -7.5 -19.5t-19.5 -7.5z" />
    <glyph glyph-name="oacute" unicode="&#xf3;" horiz-adv-x="608" 
d="M304 -10q-77 0 -135 33.5t-89.5 93t-31.5 138.5t31.5 138.5t89.5 93t135 33.5t134.5 -33.5t89.5 -93t32 -138.5t-32 -138.5t-89.5 -93t-134.5 -33.5zM304 73q38 0 76 18t63.5 58.5t25.5 106.5t-25.5 106t-63.5 57.5t-76 17.5t-76.5 -17.5t-63.5 -57.5t-25 -106t25 -106.5
t63.5 -58.5t76.5 -18zM304 567q-12 0 -19.5 7.5t-7.5 19.5q0 6 3 11.5t4 7.5l51 90q5 8 12.5 13.5t20.5 5.5q17 0 27 -10t10 -27q0 -14 -10 -25l-69 -82q-9 -11 -22 -11z" />
    <glyph glyph-name="ocircumflex" unicode="&#xf4;" horiz-adv-x="608" 
d="M304 -10q-77 0 -135 33.5t-89.5 93t-31.5 138.5t31.5 138.5t89.5 93t135 33.5t134.5 -33.5t89.5 -93t32 -138.5t-32 -138.5t-89.5 -93t-134.5 -33.5zM304 73q38 0 76 18t63.5 58.5t25.5 106.5t-25.5 106t-63.5 57.5t-76 17.5t-76.5 -17.5t-63.5 -57.5t-25 -106t25 -106.5
t63.5 -58.5t76.5 -18zM199 566q-13 0 -22 9.5t-8 20.5q0 11 8 19l68 70q8 8 17 14t23 6h38q14 0 23.5 -6t16.5 -14l68 -70q8 -8 8 -19q1 -11 -8 -20.5t-22 -9.5q-11 0 -18 7l-87 74l-87 -74q-7 -7 -18 -7z" />
    <glyph glyph-name="otilde" unicode="&#xf5;" horiz-adv-x="608" 
d="M304 -10q-77 0 -135 33.5t-89.5 93t-31.5 138.5t31.5 138.5t89.5 93t135 33.5t134.5 -33.5t89.5 -93t32 -138.5t-32 -138.5t-89.5 -93t-134.5 -33.5zM304 73q38 0 76 18t63.5 58.5t25.5 106.5t-25.5 106t-63.5 57.5t-76 17.5t-76.5 -17.5t-63.5 -57.5t-25 -106t25 -106.5
t63.5 -58.5t76.5 -18zM166 571q-9 0 -16 6.5t-7 16.5q0 20 10 42t29 37.5t45 15.5q29 0 54 -11.5t49 -23.5t51 -12q16 0 24.5 7t12.5 20q3 8 8.5 14.5t16.5 6.5t16.5 -6.5t6.5 -15.5q0 -21 -10.5 -43t-29.5 -37t-44 -15q-30 0 -55 12t-49 24t-50 12q-15 0 -24 -9t-15 -23
q-2 -7 -7.5 -12.5t-15.5 -5.5z" />
    <glyph glyph-name="odieresis" unicode="&#xf6;" horiz-adv-x="608" 
d="M304 -10q-77 0 -135 33.5t-89.5 93t-31.5 138.5t31.5 138.5t89.5 93t135 33.5t134.5 -33.5t89.5 -93t32 -138.5t-32 -138.5t-89.5 -93t-134.5 -33.5zM304 73q38 0 76 18t63.5 58.5t25.5 106.5t-25.5 106t-63.5 57.5t-76 17.5t-76.5 -17.5t-63.5 -57.5t-25 -106t25 -106.5
t63.5 -58.5t76.5 -18zM388 575q-21 0 -36 15t-15 36t15 36t36 15t36 -15t15 -36t-15 -36t-36 -15zM220 575q-21 0 -36 15t-15 36t15 36t36 15t36 -15t15 -36t-15 -36t-36 -15z" />
    <glyph glyph-name="divide" unicode="&#xf7;" horiz-adv-x="712" 
d="M356 465q-21 0 -36 15t-15 36t15 36t36 15t36 -15t15 -36t-15 -36t-36 -15zM113 291q-17 0 -28.5 11.5t-11.5 28.5t11.5 29t28.5 12h485q17 0 29 -12t12 -29t-12 -28.5t-29 -11.5h-485zM356 95q-21 0 -36 15t-15 36t15 36t36 15t36 -15t15 -36t-15 -36t-36 -15z" />
    <glyph glyph-name="oslash" unicode="&#xf8;" horiz-adv-x="608" 
d="M120 -31q-11 0 -18 7t-7 17q0 8 6 17l29 41q-39 35 -60.5 87.5t-21.5 116.5q0 79 31.5 138.5t89.5 93t135 33.5q38 0 71 -8.5t61 -23.5l29 41q7 10 21 10q11 0 18 -7t7 -17q0 -8 -6 -17l-28 -40q40 -34 61.5 -86t21.5 -117q0 -79 -32 -138.5t-89.5 -93t-134.5 -33.5
q-75 0 -133 32l-30 -43q-7 -10 -21 -10zM182 125l204 291q-39 21 -82 21q-38 0 -76.5 -17.5t-63.5 -57.5t-25 -106q0 -44 12 -76.5t31 -54.5zM304 73q38 0 76 18t63.5 58.5t25.5 106.5q0 44 -12 75.5t-31 53.5l-204 -291q20 -11 40.5 -16t41.5 -5z" />
    <glyph glyph-name="ugrave" unicode="&#xf9;" horiz-adv-x="609" 
d="M253 -10q-57 0 -97 26.5t-61 71.5t-21 98v284q0 19 13.5 32t32.5 13t32 -13t13 -32v-274q0 -57 26 -89.5t84 -32.5q54 0 94 29.5t70 66.5v300q0 19 13.5 32t32.5 13t32 -13t13 -32v-429q0 -19 -13 -32.5t-32 -13.5t-32.5 13.5t-13.5 32.5v41q-31 -34 -75 -63t-111 -29z
M305 567q-13 0 -22 11l-69 82q-10 11 -10 25q0 17 10.5 27t26.5 10q13 0 21 -5.5t12 -13.5l51 -90q2 -2 4.5 -7.5t2.5 -11.5q0 -12 -7.5 -19.5t-19.5 -7.5z" />
    <glyph glyph-name="uacute" unicode="&#xfa;" horiz-adv-x="609" 
d="M253 -10q-57 0 -97 26.5t-61 71.5t-21 98v284q0 19 13.5 32t32.5 13t32 -13t13 -32v-274q0 -57 26 -89.5t84 -32.5q54 0 94 29.5t70 66.5v300q0 19 13.5 32t32.5 13t32 -13t13 -32v-429q0 -19 -13 -32.5t-32 -13.5t-32.5 13.5t-13.5 32.5v41q-31 -34 -75 -63t-111 -29z
M305 567q-12 0 -19.5 7.5t-7.5 19.5q0 6 3 11.5t4 7.5l51 90q5 8 12.5 13.5t20.5 5.5q17 0 27 -10t10 -27q0 -14 -10 -25l-69 -82q-9 -11 -22 -11z" />
    <glyph glyph-name="ucircumflex" unicode="&#xfb;" horiz-adv-x="609" 
d="M253 -10q-57 0 -97 26.5t-61 71.5t-21 98v284q0 19 13.5 32t32.5 13t32 -13t13 -32v-274q0 -57 26 -89.5t84 -32.5q54 0 94 29.5t70 66.5v300q0 19 13.5 32t32.5 13t32 -13t13 -32v-429q0 -19 -13 -32.5t-32 -13.5t-32.5 13.5t-13.5 32.5v41q-31 -34 -75 -63t-111 -29z
M200 566q-13 0 -22 9.5t-8 20.5q0 11 8 19l68 70q8 8 17 14t23 6h38q14 0 23.5 -6t16.5 -14l68 -70q8 -8 8 -19q1 -11 -8 -20.5t-22 -9.5q-11 0 -18 7l-87 74l-87 -74q-7 -7 -18 -7z" />
    <glyph glyph-name="udieresis" unicode="&#xfc;" horiz-adv-x="609" 
d="M253 -10q-57 0 -97 26.5t-61 71.5t-21 98v284q0 19 13.5 32t32.5 13t32 -13t13 -32v-274q0 -57 26 -89.5t84 -32.5q54 0 94 29.5t70 66.5v300q0 19 13.5 32t32.5 13t32 -13t13 -32v-429q0 -19 -13 -32.5t-32 -13.5t-32.5 13.5t-13.5 32.5v41q-31 -34 -75 -63t-111 -29z
M389 575q-21 0 -36 15t-15 36t15 36t36 15t36 -15t15 -36t-15 -36t-36 -15zM221 575q-21 0 -36 15t-15 36t15 36t36 15t36 -15t15 -36t-15 -36t-36 -15z" />
    <glyph glyph-name="yacute" unicode="&#xfd;" horiz-adv-x="537" 
d="M193 -235q-18 0 -30.5 13t-12.5 31q0 9 3 16l65 167l-188 458q-1 4 -2.5 9t-1.5 10q0 19 13 32.5t32 13.5q14 0 25.5 -8t16.5 -20l154 -382l157 380q6 14 16.5 22t25.5 8q19 0 32 -13.5t13 -32.5q0 -9 -3 -17l-273 -656q-6 -13 -16 -22t-26 -9zM269 567q-12 0 -19.5 7.5
t-7.5 19.5q0 6 3 11.5t4 7.5l51 90q5 8 12.5 13.5t20.5 5.5q17 0 27 -10t10 -27q0 -14 -10 -25l-69 -82q-9 -11 -22 -11z" />
    <glyph glyph-name="thorn" unicode="&#xfe;" horiz-adv-x="631" 
d="M124 -235q-19 0 -32 13.5t-13 32.5v878q0 20 13 33t32 13q20 0 33 -13t13 -33v-245q35 36 77 56t94 20q61 0 116 -31t90.5 -90t35.5 -144t-35.5 -144t-90.5 -90t-116 -31q-52 0 -94 20t-77 56v-255q0 -19 -13 -32.5t-33 -13.5zM328 75q71 0 117.5 46t46.5 134
q0 89 -46.5 134.5t-117.5 45.5q-49 0 -89 -21.5t-69 -53.5v-210q29 -32 69 -53.5t89 -21.5z" />
    <glyph glyph-name="ydieresis" unicode="&#xff;" horiz-adv-x="537" 
d="M193 -235q-18 0 -30.5 13t-12.5 31q0 9 3 16l65 167l-188 458q-1 4 -2.5 9t-1.5 10q0 19 13 32.5t32 13.5q14 0 25.5 -8t16.5 -20l154 -382l157 380q6 14 16.5 22t25.5 8q19 0 32 -13.5t13 -32.5q0 -9 -3 -17l-273 -656q-6 -13 -16 -22t-26 -9zM353 575q-21 0 -36 15
t-15 36t15 36t36 15t36 -15t15 -36t-15 -36t-36 -15zM185 575q-21 0 -36 15t-15 36t15 36t36 15t36 -15t15 -36t-15 -36t-36 -15z" />
    <glyph glyph-name="Abreve" unicode="&#x102;" horiz-adv-x="746" 
d="M95 -5q-21 0 -33 13t-12 32q0 8 5 20l255 602q7 16 21.5 28.5t36.5 12.5h10q23 0 37 -12.5t21 -28.5l255 -602q5 -12 5 -20q0 -19 -12 -32t-33 -13q-31 0 -43 28l-65 156h-340l-65 -156q-12 -28 -43 -28zM238 262h270l-135 325zM373 748q-48 0 -84.5 22t-55.5 59
q-3 6 -3 14q0 13 8.5 22t22.5 9q19 0 28 -19q11 -22 33 -35.5t51 -13.5t51.5 13.5t32.5 35.5q9 19 28 19q14 0 22.5 -9t8.5 -22q0 -8 -3 -14q-19 -37 -55.5 -59t-84.5 -22z" />
    <glyph glyph-name="dotlessi" unicode="&#x131;" horiz-adv-x="249" 
d="M124 -5q-19 0 -32 13t-13 32v429q0 20 13 33t32 13q20 0 33 -13t13 -33v-429q0 -19 -13 -32t-33 -13z" />
    <glyph glyph-name="OE" unicode="&#x152;" horiz-adv-x="1207" 
d="M406 -10q-107 0 -185 46t-121 127t-45 186q2 105 45 186t121 127t185 46q86 0 152 -34t108 -95v73q0 19 13 32.5t32 13.5h401q18 0 30.5 -12.5t12.5 -30.5t-12.5 -30t-30.5 -12h-355v-221h319q18 0 30.5 -12.5t12.5 -30.5t-12.5 -30t-30.5 -12h-319v-222h355
q18 0 30.5 -12.5t12.5 -30.5t-12.5 -30t-30.5 -12h-401q-19 0 -32 13t-13 32v74q-42 -61 -108 -95t-152 -34zM406 75q83 0 141 36.5t88.5 98.5t30.5 139t-30.5 139t-88.5 98.5t-141 36.5t-141 -36.5t-88.5 -98.5t-30.5 -139t30.5 -139t88.5 -98.5t141 -36.5z" />
    <glyph glyph-name="oe" unicode="&#x153;" horiz-adv-x="987" 
d="M304 -10q-77 0 -135 33.5t-89.5 93t-31.5 138.5t31.5 138.5t89.5 93t135 33.5q69 0 123 -31t86 -85q26 51 74.5 83.5t120.5 32.5q77 0 130 -35.5t80.5 -92.5t27.5 -124q0 -19 -12.5 -32t-33.5 -13h-339q8 -67 51 -107.5t124 -40.5q45 0 76 8.5t59 22.5q8 4 18 4
q16 0 28 -11t12 -28q0 -12 -7.5 -21.5t-18.5 -15.5q-33 -19 -71.5 -31.5t-103.5 -12.5q-76 0 -131 29.5t-85 85.5q-31 -54 -85 -84.5t-123 -30.5zM561 297h295q-3 52 -26.5 84t-56.5 47t-65 15t-65 -15t-56 -47t-26 -84zM304 73q38 0 76 18t63.5 58.5t25.5 106.5t-25.5 106
t-63.5 57.5t-76 17.5t-76.5 -17.5t-63.5 -57.5t-25 -106t25 -106.5t63.5 -58.5t76.5 -18z" />
    <glyph glyph-name="uni02BB" unicode="&#x2bb;" horiz-adv-x="400" 
d="M198 575q-22 0 -36 15.5t-14 37.5v33q0 43 21.5 68t46.5 40q8 5 16 5q9 0 15.5 -6.5t6.5 -16.5q0 -13 -12 -21q-19 -11 -31 -23.5t-12 -32.5q22 0 35.5 -13.5t13.5 -34.5t-14.5 -36t-35.5 -15z" />
    <glyph glyph-name="uni02BC" unicode="&#x2bc;" horiz-adv-x="400" 
d="M219 554q-7 0 -13 6t-6 16q0 7 4 11t9 8q11 8 22 19t11 29q-20 0 -33 12.5t-13 31.5q0 20 13.5 34t33.5 14q21 0 33.5 -14.5t12.5 -34.5v-31q0 -32 -15 -53.5t-43 -41.5q-6 -6 -16 -6z" />
    <glyph glyph-name="circumflex" unicode="&#x2c6;" horiz-adv-x="409" 
d="M95 566q-13 0 -22 9.5t-8 20.5q0 11 8 19l68 70q8 8 17 14t23 6h38q14 0 23.5 -6t16.5 -14l68 -70q8 -8 8 -19q1 -11 -8 -20.5t-22 -9.5q-11 0 -18 7l-87 74l-87 -74q-7 -7 -18 -7z" />
    <glyph glyph-name="ring" unicode="&#x2da;" horiz-adv-x="270" 
d="M200 551q-39 0 -66.5 27.5t-27.5 66.5t27.5 66.5t66.5 27.5t66.5 -27.5t27.5 -66.5t-27.5 -66.5t-66.5 -27.5zM200 596q20 0 34.5 14.5t14.5 34.5t-14.5 34.5t-34.5 14.5t-34.5 -14.5t-14.5 -34.5t14.5 -34.5t34.5 -14.5z" />
    <glyph glyph-name="tilde" unicode="&#x2dc;" horiz-adv-x="432" 
d="M62 571q-9 0 -16 6.5t-7 16.5q0 20 10 42t29 37.5t45 15.5q29 0 54 -11.5t49 -23.5t51 -12q16 0 24.5 7t12.5 20q3 8 8.5 14.5t16.5 6.5t16.5 -6.5t6.5 -15.5q0 -21 -10.5 -43t-29.5 -37t-44 -15q-30 0 -55 12t-49 24t-50 12q-15 0 -24 -9t-15 -23q-2 -7 -7.5 -12.5
t-15.5 -5.5z" />
    <glyph glyph-name="uni2009" unicode="&#x2009;" horiz-adv-x="200" 
 />
    <glyph glyph-name="uni200B" unicode="&#x200b;" 
 />
    <glyph glyph-name="endash" unicode="&#x2013;" horiz-adv-x="684" 
d="M109 240q-17 0 -28.5 11.5t-11.5 28.5t11.5 29t28.5 12h465q17 0 29 -12t12 -29t-12 -28.5t-29 -11.5h-465z" />
    <glyph glyph-name="emdash" unicode="&#x2014;" horiz-adv-x="891" 
d="M109 240q-17 0 -28.5 11.5t-11.5 28.5t11.5 29t28.5 12h672q17 0 29 -12t12 -29t-12 -28.5t-29 -11.5h-672z" />
    <glyph glyph-name="quoteleft" unicode="&#x2018;" horiz-adv-x="255" 
d="M122 477q-23 0 -39.5 16.5t-16.5 39.5v59q0 60 26.5 94t55.5 52q2 2 7 3.5t10 1.5q13 0 21 -9t8 -21q0 -16 -15 -25q-22 -13 -36.5 -32.5t-14.5 -60.5h4q23 0 39.5 -16.5t16.5 -39.5v-6q0 -23 -16.5 -39.5t-39.5 -16.5h-10z" />
    <glyph glyph-name="quoteright" unicode="&#x2019;" horiz-adv-x="238" 
d="M92 477q-13 0 -21 9t-8 21q0 16 15 25q22 13 36.5 32.5t14.5 60.5h-4q-23 0 -39.5 16.5t-16.5 39.5v6q0 23 16.5 39.5t39.5 16.5h10q23 0 39.5 -16.5t16.5 -39.5v-59q0 -60 -26.5 -94t-55.5 -52q-2 -1 -7 -3t-10 -2z" />
    <glyph glyph-name="quotesinglbase" unicode="&#x201a;" horiz-adv-x="260" 
d="M92 -151q-13 0 -21 9t-8 21q0 16 15 25q22 13 36.5 32.5t14.5 60.5h-4q-23 0 -39.5 16.5t-16.5 39.5v6q0 23 16.5 39.5t39.5 16.5h10q23 0 39.5 -16.5t16.5 -39.5v-59q0 -60 -26.5 -94t-55.5 -52q-2 -1 -7 -3t-10 -2z" />
    <glyph glyph-name="quotedblleft" unicode="&#x201c;" horiz-adv-x="437" 
d="M303 477q-23 0 -39.5 16.5t-16.5 39.5v59q0 60 26.5 94t55.5 52q2 2 7 3.5t10 1.5q13 0 21 -9t8 -21q0 -16 -15 -25q-22 -13 -36.5 -32.5t-14.5 -60.5h4q23 0 39.5 -16.5t16.5 -39.5v-6q0 -23 -16.5 -39.5t-39.5 -16.5h-10zM122 477q-23 0 -39.5 16.5t-16.5 39.5v59
q0 60 26.5 94t55.5 52q2 2 7 3.5t10 1.5q13 0 21 -9t8 -21q0 -16 -15 -25q-22 -13 -36.5 -32.5t-14.5 -60.5h4q23 0 39.5 -16.5t16.5 -39.5v-6q0 -23 -16.5 -39.5t-39.5 -16.5h-10z" />
    <glyph glyph-name="quotedblright" unicode="&#x201d;" horiz-adv-x="420" 
d="M273 477q-13 0 -21 9t-8 21q0 16 15 25q22 13 36.5 32.5t14.5 60.5h-4q-23 0 -39.5 16.5t-16.5 39.5v6q0 23 16.5 39.5t39.5 16.5h10q23 0 39.5 -16.5t16.5 -39.5v-59q0 -60 -26.5 -94t-55.5 -52q-2 -1 -7 -3t-10 -2zM92 477q-13 0 -21 9t-8 21q0 16 15 25
q22 13 36.5 32.5t14.5 60.5h-4q-23 0 -39.5 16.5t-16.5 39.5v6q0 23 16.5 39.5t39.5 16.5h10q23 0 39.5 -16.5t16.5 -39.5v-59q0 -60 -26.5 -94t-55.5 -52q-2 -1 -7 -3t-10 -2z" />
    <glyph glyph-name="quotedblbase" unicode="&#x201e;" horiz-adv-x="441" 
d="M273 -151q-13 0 -21 9t-8 21q0 16 15 25q22 13 36.5 32.5t14.5 60.5h-4q-23 0 -39.5 16.5t-16.5 39.5v6q0 23 16.5 39.5t39.5 16.5h10q23 0 39.5 -16.5t16.5 -39.5v-59q0 -60 -26.5 -94t-55.5 -52q-2 -1 -7 -3t-10 -2zM92 -151q-13 0 -21 9t-8 21q0 16 15 25
q22 13 36.5 32.5t14.5 60.5h-4q-23 0 -39.5 16.5t-16.5 39.5v6q0 23 16.5 39.5t39.5 16.5h10q23 0 39.5 -16.5t16.5 -39.5v-59q0 -60 -26.5 -94t-55.5 -52q-2 -1 -7 -3t-10 -2z" />
    <glyph glyph-name="bullet" unicode="&#x2022;" horiz-adv-x="377" 
d="M189 260q-37 0 -67 18t-48 48t-18 67t18 67t48 48t67 18t66.5 -18t47.5 -48t18 -67t-18 -67t-47.5 -48t-66.5 -18z" />
    <glyph glyph-name="ellipsis" unicode="&#x2026;" horiz-adv-x="968" 
d="M832 -3q-23 0 -39.5 16.5t-16.5 39.5v6q0 23 16.5 39.5t39.5 16.5h10q23 0 39.5 -16.5t16.5 -39.5v-6q0 -23 -16.5 -39.5t-39.5 -16.5h-10zM125 -3q-23 0 -39.5 16.5t-16.5 39.5v6q0 23 16.5 39.5t39.5 16.5h10q23 0 39.5 -16.5t16.5 -39.5v-6q0 -23 -16.5 -39.5
t-39.5 -16.5h-10zM480 -3q-23 0 -39.5 16.5t-16.5 39.5v6q0 23 16.5 39.5t39.5 16.5h10q23 0 39.5 -16.5t16.5 -39.5v-6q0 -23 -16.5 -39.5t-39.5 -16.5h-10z" />
    <glyph glyph-name="minute" unicode="&#x2032;" horiz-adv-x="222" 
d="M111 492q-12 0 -19.5 7.5t-9.5 17.5q-4 22 -9.5 53.5t-9 65t-3.5 61.5q0 21 15.5 35.5t35.5 14.5t35.5 -14.5t15.5 -35.5q0 -28 -3.5 -61.5t-8.5 -65t-10 -53.5q-2 -10 -9.5 -17.5t-19.5 -7.5z" />
    <glyph glyph-name="second" unicode="&#x2033;" horiz-adv-x="411" 
d="M300 492q-12 0 -19.5 7.5t-9.5 17.5q-4 22 -10 53.5t-9.5 65t-2.5 61.5q1 21 16 35.5t35 14.5t35.5 -14.5t15.5 -35.5q0 -28 -3.5 -61.5t-8.5 -65t-10 -53.5q-2 -10 -9.5 -17.5t-19.5 -7.5zM111 492q-12 0 -19.5 7.5t-9.5 17.5q-4 22 -9.5 53.5t-9 65t-3.5 61.5
q0 21 15.5 35.5t35.5 14.5t35.5 -14.5t15.5 -35.5q0 -28 -3.5 -61.5t-8.5 -65t-10 -53.5q-2 -10 -9.5 -17.5t-19.5 -7.5z" />
    <glyph glyph-name="guilsinglleft" unicode="&#x2039;" horiz-adv-x="377" 
d="M264 20q-19 0 -28 11l-164 181q-7 8 -12.5 19.5t-5.5 23.5t5.5 23.5t12.5 19.5l164 181q9 11 28 11q17 0 28 -11t11 -28q0 -15 -9 -26l-160 -170l160 -170q9 -10 9 -26q0 -17 -11 -28t-28 -11z" />
    <glyph glyph-name="guilsinglright" unicode="&#x203a;" horiz-adv-x="377" 
d="M113 20q-16 0 -27.5 11t-11.5 28q0 16 9 26l160 170l-160 170q-9 11 -9 26q0 17 11.5 28t27.5 11q19 0 28 -11l164 -181q8 -8 13 -19.5t5 -23.5t-5 -23.5t-13 -19.5l-164 -181q-9 -11 -28 -11z" />
    <glyph glyph-name="fraction" unicode="&#x2044;" horiz-adv-x="191" 
d="M-111 -24q-13 0 -23.5 9.5t-10.5 24.5q0 8 5 18l414 682q5 8 12.5 11t15.5 3q14 0 24 -9.5t10 -24.5q0 -8 -5 -18l-414 -682q-4 -7 -12 -10.5t-16 -3.5z" />
    <glyph glyph-name="uni2074" unicode="&#x2074;" horiz-adv-x="370" 
d="M248 305q-13 0 -22.5 9.5t-9.5 22.5v69h-156q-17 0 -29.5 12.5t-12.5 29.5q0 15 11 29l165 211q7 8 15.5 14.5t20.5 6.5h8q18 0 30 -12.5t12 -29.5v-202h36q13 0 21.5 -8.5t8.5 -21.5t-8.5 -21t-21.5 -8h-36v-69q0 -13 -9 -22.5t-23 -9.5zM89 465h127v165z" />
    <glyph glyph-name="Euro" unicode="&#x20ac;" horiz-adv-x="682" 
d="M468 -10q-80 0 -146 33.5t-112 90.5t-67 129h-65q-15 0 -25.5 10.5t-10.5 25.5t10.5 26t25.5 11h52q-1 8 -1 16.5v16.5q0 10 0.5 20.5t1.5 20.5h-53q-15 0 -25.5 10.5t-10.5 25.5t10.5 25.5t25.5 10.5h69q20 63 61 119t106 91.5t154 35.5q80 0 146 -32q23 -11 23 -36
q0 -16 -12 -28t-29 -12q-4 0 -9.5 2t-9.5 3q-22 8 -48.5 12.5t-60.5 4.5q-80 0 -139 -45.5t-87 -114.5h289q15 0 25.5 -10.5t10.5 -25.5q0 -14 -10.5 -25t-25.5 -11h-308q-3 -19 -3 -41q0 -8 0.5 -16.5t1.5 -16.5h259q15 0 26 -11t11 -26q0 -16 -10 -26t-27 -10h-243
q28 -74 89.5 -120.5t140.5 -46.5q34 0 60.5 4.5t48.5 12.5q4 2 9.5 3.5t9.5 1.5q17 0 29 -11.5t12 -28.5q0 -24 -23 -36q-66 -32 -146 -32z" />
    <glyph glyph-name="trademark" unicode="&#x2122;" horiz-adv-x="953" 
d="M466 317q-13 0 -22.5 9.5t-9.5 22.5v309q0 17 12 29.5t30 12.5h17q13 0 24 -7.5t15 -18.5l116 -287l116 287q5 11 15.5 18.5t23.5 7.5h17q18 0 30 -12.5t12 -29.5v-309q0 -13 -9 -22.5t-23 -9.5q-13 0 -22.5 9.5t-9.5 22.5v262l-111 -269q-10 -25 -39 -25t-39 25
l-111 269v-262q0 -13 -9 -22.5t-23 -9.5zM217 317q-13 0 -22 9t-9 22v292h-100q-12 0 -20.5 8.5t-8.5 20.5t8.5 20.5t20.5 8.5h264q12 0 20.5 -8.5t8.5 -20.5t-8.5 -20.5t-20.5 -8.5h-101v-292q0 -13 -9 -22t-23 -9z" />
    <glyph glyph-name="minus" unicode="&#x2212;" horiz-adv-x="712" 
d="M113 290q-17 0 -28.5 11.5t-11.5 28.5t11.5 29t28.5 12h485q17 0 29 -12t12 -29t-12 -28.5t-29 -11.5h-485z" />
    <glyph glyph-name="uni2215" unicode="&#x2215;" horiz-adv-x="628" 
d="M181 -95q-18 0 -29.5 12t-11.5 29q0 4 1 8.5t2 6.5l265 775q4 12 14 20t25 8q18 0 29.5 -12t11.5 -29q0 -4 -1 -8.5t-2 -6.5l-265 -775q-4 -12 -14 -20t-25 -8z" />
    <glyph glyph-name="Iacute_J.loclNLD" horiz-adv-x="751" 
d="M142 -5q-19 0 -32 13t-13 32v617q0 19 13 32.5t32 13.5t32.5 -13.5t13.5 -32.5v-617q0 -19 -13.5 -32t-32.5 -13zM143 739q-12 0 -19.5 7.5t-7.5 19.5q0 6 3 11.5t4 7.5l51 90q5 8 12.5 13.5t20.5 5.5q17 0 27 -10t10 -27q0 -14 -10 -25l-69 -82q-9 -11 -22 -11zM453 -10
q-38 0 -71.5 9t-61.5 25q-9 5 -15.5 14t-6.5 23q0 16 10.5 28.5t27.5 12.5q10 0 18 -4q20 -10 43.5 -16t49.5 -6q30 0 57.5 11t45.5 42.5t18 94.5v433q0 19 13 32.5t32 13.5t32.5 -13.5t13.5 -32.5v-427q0 -72 -17.5 -118.5t-47 -73t-66.5 -37.5t-75 -11zM613 739
q-12 0 -19.5 7.5t-7.5 19.5q0 6 3 11.5t4 7.5l51 90q5 8 12.5 13.5t20.5 5.5q17 0 27 -10t10 -27q0 -14 -10 -25l-69 -82q-9 -11 -22 -11z" />
    <glyph glyph-name="i.loclTRK" horiz-adv-x="249" 
d="M124 -5q-19 0 -32 13t-13 32v429q0 20 13 33t32 13q20 0 33 -13t13 -33v-429q0 -19 -13 -32t-33 -13zM125 575q-21 0 -36 15t-15 36t15 36t36 15t36 -15t15 -36t-15 -36t-36 -15z" />
    <glyph glyph-name="uni0237" horiz-adv-x="254" 
d="M44 -240q-36 0 -63 9q-26 8 -26 36q0 15 11 26.5t27 11.5q7 0 14 -1.5t16 -1.5q26 0 43.5 9.5t17.5 49.5v569q0 20 13 33t32 13q20 0 33 -13t13 -33v-571q0 -58 -29.5 -97.5t-101.5 -39.5z" />
    <glyph glyph-name="iacute_j.loclNLD" horiz-adv-x="503" 
d="M124 -5q-19 0 -32 13t-13 32v429q0 20 13 33t32 13q20 0 33 -13t13 -33v-429q0 -19 -13 -32t-33 -13zM125 567q-12 0 -19.5 7.5t-7.5 19.5q0 6 3 11.5t4 7.5l51 90q5 8 12.5 13.5t20.5 5.5q17 0 27 -10t10 -27q0 -14 -10 -25l-69 -82q-9 -11 -22 -11zM293 -240
q-36 0 -63 9q-26 8 -26 36q0 15 11 26.5t27 11.5q7 0 14 -1.5t16 -1.5q26 0 43.5 9.5t17.5 49.5v569q0 20 13 33t32 13q20 0 33 -13t13 -33v-571q0 -58 -29.5 -97.5t-101.5 -39.5zM379 567q-12 0 -19.5 7.5t-7.5 19.5q0 6 3 11.5t4 7.5l51 90q5 8 12.5 13.5t20.5 5.5
q17 0 27 -10t10 -27q0 -14 -10 -25l-69 -82q-9 -11 -22 -11z" />
    <glyph glyph-name="I_J.loclNLD" horiz-adv-x="751" 
d="M142 -5q-19 0 -32 13t-13 32v617q0 19 13 32.5t32 13.5t32.5 -13.5t13.5 -32.5v-617q0 -19 -13.5 -32t-32.5 -13zM453 -10q-38 0 -71.5 9t-61.5 25q-9 5 -15.5 14t-6.5 23q0 16 10.5 28.5t27.5 12.5q10 0 18 -4q20 -10 43.5 -16t49.5 -6q30 0 57.5 11t45.5 42.5t18 94.5
v433q0 19 13 32.5t32 13.5t32.5 -13.5t13.5 -32.5v-427q0 -72 -17.5 -118.5t-47 -73t-66.5 -37.5t-75 -11z" />
    <glyph glyph-name="i_j.loclNLD" horiz-adv-x="503" 
d="M122 614q-21 0 -36 15t-15 36v4q0 21 15 36t36 15h6q21 0 36 -15t15 -36v-4q0 -21 -15 -36t-36 -15h-6zM124 -5q-19 0 -32 13t-13 32v429q0 20 13 33t32 13q20 0 33 -13t13 -33v-429q0 -19 -13 -32t-33 -13zM376 614q-21 0 -36 15t-15 36v4q0 21 15 36t36 15h6
q21 0 36 -15t15 -36v-4q0 -21 -15 -36t-36 -15h-6zM293 -240q-36 0 -63 9q-26 8 -26 36q0 15 11 26.5t27 11.5q7 0 14 -1.5t16 -1.5q26 0 43.5 9.5t17.5 49.5v569q0 20 13 33t32 13q20 0 33 -13t13 -33v-571q0 -58 -29.5 -97.5t-101.5 -39.5z" />
    <glyph glyph-name="zero.lf" horiz-adv-x="652" 
d="M326 -10q-90 0 -150.5 45t-90.5 126t-30 188t30 188t90.5 126t150.5 45t150 -45t90.5 -126t30.5 -188t-30.5 -188t-90.5 -126t-150 -45zM326 74q89 0 134.5 74t45.5 201q0 126 -45.5 200t-134.5 74q-88 0 -134 -74t-46 -200q0 -127 46 -201t134 -74z" />
    <glyph glyph-name="one.lf" horiz-adv-x="518" 
d="M125 0q-18 0 -30 12t-12 30t12 30.5t30 12.5h119v507l-102 -50l-10 -4t-13 -2q-19 0 -31 12t-12 31q0 28 26 41l136 71q14 7 28 7h21q20 0 34 -14t14 -34v-565h99q18 0 30.5 -12.5t12.5 -30.5t-12.5 -30t-30.5 -12h-309z" />
    <glyph glyph-name="two.lf" horiz-adv-x="606" 
d="M107 0q-23 0 -38 14.5t-15 37.5q0 53 29 95.5t74.5 78t96.5 67.5t96.5 63.5t74.5 66t29 75.5q0 53 -35.5 88.5t-122.5 35.5q-51 0 -94 -10.5t-77 -25.5q-1 -1 -7 -3t-12 -2q-16 0 -27 11.5t-11 27.5q0 25 22 37q42 21 97.5 36t124.5 15q64 0 116 -25.5t83 -71t31 -106.5
q0 -51 -25 -94.5t-65.5 -80t-87.5 -69t-92 -61.5t-79 -57.5t-48 -57.5h348q18 0 30.5 -12.5t12.5 -30.5t-12.5 -30t-30.5 -12h-386z" />
    <glyph glyph-name="three.lf" horiz-adv-x="579" 
d="M268 -10q-67 0 -119.5 12.5t-89.5 27.5q-11 5 -18.5 14.5t-7.5 23.5q0 16 11 29t29 13q9 0 19 -4q30 -12 70 -20.5t89 -8.5q44 0 86.5 9.5t70.5 33.5t28 68q0 37 -21 65.5t-69 44.5t-131 16h-16q-17 0 -29.5 12.5t-12.5 29.5t12.5 29.5t29.5 12.5h6q98 0 152 30t54 91
q0 47 -39 75.5t-119 28.5q-47 0 -85.5 -9.5t-69.5 -23.5q-4 -1 -8 -2.5t-10 -1.5q-15 0 -26 10.5t-11 26.5q0 23 20 34q35 19 85 35t113 16q116 0 178.5 -47t62.5 -133q0 -50 -18.5 -83.5t-46 -53t-56.5 -30.5q21 -5 46 -16t48 -31.5t37.5 -52.5t14.5 -78
q0 -64 -34.5 -106.5t-93 -64.5t-131.5 -22z" />
    <glyph glyph-name="four.lf" horiz-adv-x="628" 
d="M433 -5q-19 0 -32 13t-13 32v136h-305q-24 0 -41 16.5t-17 40.5v9q0 21 12 36l314 401q8 11 21.5 17.5t28.5 6.5h20q26 0 42 -17t16 -41v-388h76q17 0 29 -12t12 -29t-12 -28.5t-29 -11.5h-76v-136q0 -19 -13.5 -32t-32.5 -13zM122 257h266v343z" />
    <glyph glyph-name="five.lf" horiz-adv-x="615" 
d="M292 -10q-70 0 -122.5 17t-90.5 41q-7 5 -13.5 12.5t-6.5 23.5q0 17 11 30t29 13q11 0 21 -5q32 -17 72.5 -29.5t87.5 -12.5q59 0 103 13t68 43.5t24 84.5q0 62 -41.5 98t-113.5 36q-51 0 -90 -14t-64 -29q-7 -4 -15 -8t-20 -4q-28 0 -47 15.5t-19 42.5q0 12 2 24l45 266
q3 23 17.5 36.5t35.5 13.5h321q18 0 30.5 -12.5t12.5 -30.5t-12.5 -30t-30.5 -12h-290l-32 -212q31 17 72.5 29t96.5 12q76 0 127.5 -29.5t78.5 -80.5t27 -116q0 -64 -29 -115t-89.5 -81t-155.5 -30z" />
    <glyph glyph-name="six.lf" horiz-adv-x="624" 
d="M329 -10q-74 0 -123.5 23.5t-79.5 63t-45.5 86.5t-20.5 95.5t-5 89.5q0 59 14.5 121.5t48 117t89.5 88t138 33.5q62 0 104.5 -13.5t72.5 -29.5q21 -10 21 -36q0 -16 -11 -28.5t-30 -12.5q-9 0 -17 3q-25 12 -58.5 20.5t-74.5 8.5q-64 0 -104.5 -26.5t-63 -67.5
t-31.5 -84.5t-11 -77.5q25 32 74 60t131 28q68 0 119.5 -29t80.5 -81.5t29 -124.5q0 -63 -30 -114.5t-85 -82t-132 -30.5zM330 75q48 0 82.5 20t53.5 53t19 71q0 66 -37 108t-112 42q-59 0 -97 -19.5t-59.5 -45t-32.5 -45.5q7 -48 26 -90t57 -68t100 -26z" />
    <glyph glyph-name="seven.lf" horiz-adv-x="546" 
d="M188 -5q-19 0 -32 13t-13 32q0 12 6 24l275 547h-363q-18 0 -30.5 12.5t-12.5 30.5t12.5 31t30.5 13h408q24 0 40 -15t16 -38q0 -22 -10 -44l-284 -581q-13 -25 -43 -25z" />
    <glyph glyph-name="eight.lf" horiz-adv-x="638" 
d="M319 -10q-75 0 -126 17.5t-82 46.5t-45 63.5t-14 67.5q0 77 41 122t108 67q-46 16 -81 53.5t-35 98.5q0 29 12 61t39.5 59.5t72 44.5t110.5 17t110.5 -17t72 -44.5t39.5 -59.5t12 -61q0 -61 -34.5 -98.5t-81.5 -53.5q67 -22 108 -67t41 -122q0 -33 -14 -67.5t-45 -63.5
t-82 -46.5t-126 -17.5zM319 412q55 0 86 17.5t44 42.5t13 48q0 44 -35 76t-108 32t-108 -32t-35 -76q0 -23 13 -48t44.5 -42.5t85.5 -17.5zM319 70q67 0 105.5 22t54.5 51.5t16 51.5q0 45 -25 75t-65 45t-86 15t-86 -15t-65 -45t-25 -75q0 -22 16 -51.5t54.5 -51.5
t105.5 -22z" />
    <glyph glyph-name="nine.lf" horiz-adv-x="624" 
d="M279 -10q-62 0 -104.5 13.5t-72.5 29.5q-21 11 -21 36q0 16 11 28.5t30 12.5q10 0 17 -3q26 -12 59 -20.5t74 -8.5q65 0 105 26.5t62.5 67.5t31.5 84.5t11 77.5q-25 -31 -73.5 -59.5t-131.5 -28.5q-68 0 -119.5 29t-80.5 82t-29 124q0 63 30 114.5t85.5 82t131.5 30.5
q74 0 123.5 -23.5t79.5 -63t45.5 -86.5t20.5 -95.5t5 -89.5q0 -58 -14.5 -121t-48 -117.5t-89 -88t-138.5 -33.5zM288 329q59 0 97 19.5t60 45.5t32 45q-7 49 -26 90.5t-56.5 67.5t-100.5 26q-48 0 -82.5 -20t-53.5 -52.5t-19 -71.5q0 -66 37 -108t112 -42z" />
    <glyph glyph-name="zero.dnom" horiz-adv-x="370" 
d="M185 -5q-74 0 -113.5 56t-39.5 146q0 91 39.5 146.5t113.5 55.5q73 0 113 -55.5t40 -146.5q0 -90 -40 -146t-113 -56zM185 52q43 0 67 38.5t24 106.5t-24 106.5t-67 38.5t-67 -38t-24 -107t24 -107t67 -38z" />
    <glyph glyph-name="one.dnom" horiz-adv-x="370" 
d="M108 0q-13 0 -21 8t-8 21t8 21.5t21 8.5h60v265l-45 -22q-4 -1 -7 -2.5t-8 -1.5q-12 0 -21 8.5t-9 21.5q0 19 19 28l72 37q10 5 20 5q20 0 31.5 -12.5t11.5 -30.5v-296h50q13 0 21.5 -8.5t8.5 -21.5t-8.5 -21t-21.5 -8h-174z" />
    <glyph glyph-name="two.dnom" horiz-adv-x="370" 
d="M77 0q-17 0 -28 12.5t-11 27.5q0 34 22.5 60.5t55.5 48.5t66 42.5t55.5 41.5t22.5 45q0 25 -17.5 42.5t-60.5 17.5q-31 0 -54.5 -6.5t-40.5 -15.5q-6 -3 -13 -3q-12 0 -20 7.5t-8 20.5q0 17 14 25q23 14 56 23.5t74 9.5q59 0 96 -33.5t37 -83.5q0 -34 -18.5 -61.5
t-47 -50t-59 -42t-55.5 -36.5t-36 -33h190q13 0 21.5 -8.5t8.5 -21.5t-8.5 -21t-21.5 -8h-220z" />
    <glyph glyph-name="three.dnom" horiz-adv-x="370" 
d="M176 -6q-78 0 -123 25q-7 4 -12 11t-5 16q0 12 9 20.5t20 8.5q3 0 5.5 -0.5t5.5 -1.5q17 -5 40 -11t51 -6q39 0 65.5 12t26.5 40q0 62 -112 62h-11q-13 0 -21.5 8.5t-8.5 21.5t8.5 21.5t21.5 8.5h5q43 0 74 12.5t31 45.5q0 29 -25.5 39.5t-52.5 10.5q-28 0 -49 -5.5
t-37 -13.5q-6 -3 -13 -3q-10 0 -19 7.5t-9 19.5q0 16 19 26q24 13 52.5 21.5t59.5 8.5q73 0 104.5 -31t31.5 -75q0 -40 -20.5 -61t-41.5 -29q27 -8 51.5 -30.5t24.5 -66.5q0 -28 -14 -54t-46 -42t-86 -16z" />
    <glyph glyph-name="four.dnom" horiz-adv-x="370" 
d="M248 -5q-13 0 -22.5 9.5t-9.5 22.5v69h-156q-17 0 -29.5 12.5t-12.5 29.5q0 15 11 29l165 211q7 8 15.5 14.5t20.5 6.5h8q18 0 30 -12.5t12 -29.5v-202h36q13 0 21.5 -8.5t8.5 -21.5t-8.5 -21t-21.5 -8h-36v-69q0 -13 -9 -22.5t-23 -9.5zM89 155h127v165z" />
    <glyph glyph-name="five.dnom" horiz-adv-x="370" 
d="M173 -5q-68 0 -115 25q-17 9 -17 27q0 12 9 20.5t20 8.5q3 0 5.5 -0.5t5.5 -1.5q17 -5 40 -11t53 -6q94 0 94 65q0 30 -20.5 47t-55.5 17q-41 0 -68.5 -13t-41.5 -13q-15 0 -25 9.5t-10 24.5q0 10 3 29l24 142q5 29 30 29h176q13 0 21.5 -8.5t8.5 -22.5q0 -13 -8.5 -21.5
t-21.5 -8.5h-148l-16 -104q40 17 87 17q59 0 94 -33.5t35 -90.5q0 -127 -159 -127z" />
    <glyph glyph-name="six.dnom" horiz-adv-x="370" 
d="M196 -5q-77 0 -117.5 51.5t-40.5 149.5q0 94 45 148.5t124 54.5q29 0 54 -5.5t41 -14.5q12 -7 17 -13.5t5 -19.5q0 -11 -8.5 -18t-20.5 -7q-15 0 -33 9t-51 9q-50 0 -78.5 -33t-32.5 -95q19 20 46 32t60 12q64 0 98.5 -35t34.5 -93q0 -55 -38 -93.5t-105 -38.5zM200 198
q-27 0 -54 -12.5t-44 -36.5q14 -97 95 -97q38 0 58.5 22t20.5 53q0 35 -20.5 53t-55.5 18z" />
    <glyph glyph-name="seven.dnom" horiz-adv-x="370" 
d="M132 -5q-20 0 -27 15t2 32l147 291h-183q-13 0 -21.5 8.5t-8.5 21.5q0 14 8.5 22.5t21.5 8.5h224q15 0 24.5 -8.5t9.5 -21.5t-9 -31l-154 -316q-11 -22 -34 -22z" />
    <glyph glyph-name="eight.dnom" horiz-adv-x="370" 
d="M185 -5q-67 0 -108.5 31.5t-41.5 78.5q0 78 87 106q-68 22 -68 86q0 43 36.5 72.5t94.5 29.5t95 -29.5t37 -72.5q0 -64 -68 -86q86 -28 86 -106q0 -47 -41 -78.5t-109 -31.5zM185 238q31 0 50.5 15t19.5 38q0 24 -19 38.5t-51 14.5q-31 0 -50 -14.5t-19 -38.5
q0 -23 19 -38t50 -15zM185 50q37 0 62.5 17t25.5 45q0 30 -25 49t-63 19t-63 -19t-25 -49q0 -28 26 -45t62 -17z" />
    <glyph glyph-name="nine.dnom" horiz-adv-x="370" 
d="M163 -5q-28 0 -53 5.5t-42 14.5q-12 7 -17 13.5t-5 19.5q0 11 8.5 18t20.5 7q15 0 33 -9t51 -9q50 0 78.5 33t32.5 95q-19 -20 -46 -32t-60 -12q-64 0 -98.5 35t-34.5 93q0 56 38 94t105 38q77 0 117.5 -51.5t40.5 -149.5q0 -94 -45 -148.5t-124 -54.5zM94 267
q0 -35 20.5 -53t55.5 -18q27 0 54 12.5t44 36.5q-14 97 -95 97q-37 0 -58 -22t-21 -53z" />
    <glyph glyph-name="zero.numr" horiz-adv-x="392" 
d="M196 305q-74 0 -113.5 56t-39.5 146q0 91 39.5 146.5t113.5 55.5q73 0 113 -55.5t40 -146.5q0 -90 -40 -146t-113 -56zM196 362q43 0 67 38.5t24 106.5t-24 106.5t-67 38.5t-67 -38t-24 -107t24 -107t67 -38z" />
    <glyph glyph-name="one.numr" horiz-adv-x="370" 
d="M108 310q-13 0 -21 8t-8 21t8 21.5t21 8.5h60v265l-45 -22q-4 -1 -7 -2.5t-8 -1.5q-12 0 -21 8.5t-9 21.5q0 19 19 28l72 37q10 5 20 5q20 0 31.5 -12.5t11.5 -30.5v-296h50q13 0 21.5 -8.5t8.5 -21.5t-8.5 -21t-21.5 -8h-174z" />
    <glyph glyph-name="two.numr" horiz-adv-x="429" 
d="M104 310q-17 0 -28 12.5t-11 27.5q0 34 22.5 60.5t55.5 48.5t66 42.5t55.5 41.5t22.5 45q0 25 -17.5 42.5t-60.5 17.5q-31 0 -54.5 -6.5t-40.5 -15.5q-6 -3 -13 -3q-12 0 -20 7.5t-8 20.5q0 17 14 25q23 14 56 23.5t74 9.5q59 0 96 -33.5t37 -83.5q0 -34 -18.5 -61.5
t-47 -50t-59 -42t-55.5 -36.5t-36 -33h190q13 0 21.5 -8.5t8.5 -21.5t-8.5 -21t-21.5 -8h-220z" />
    <glyph glyph-name="three.numr" horiz-adv-x="370" 
d="M176 304q-78 0 -123 25q-7 4 -12 11t-5 16q0 12 9 20.5t20 8.5q3 0 5.5 -0.5t5.5 -1.5q17 -5 40 -11t51 -6q39 0 65.5 12t26.5 40q0 62 -112 62h-11q-13 0 -21.5 8.5t-8.5 21.5t8.5 21.5t21.5 8.5h5q43 0 74 12.5t31 45.5q0 29 -25.5 39.5t-52.5 10.5q-28 0 -49 -5.5
t-37 -13.5q-6 -3 -13 -3q-10 0 -19 7.5t-9 19.5q0 16 19 26q24 13 52.5 21.5t59.5 8.5q73 0 104.5 -31t31.5 -75q0 -40 -20.5 -61t-41.5 -29q27 -8 51.5 -30.5t24.5 -66.5q0 -28 -14 -54t-46 -42t-86 -16z" />
    <glyph glyph-name="four.numr" horiz-adv-x="370" 
d="M248 305q-13 0 -22.5 9.5t-9.5 22.5v69h-156q-17 0 -29.5 12.5t-12.5 29.5q0 15 11 29l165 211q7 8 15.5 14.5t20.5 6.5h8q18 0 30 -12.5t12 -29.5v-202h36q13 0 21.5 -8.5t8.5 -21.5t-8.5 -21t-21.5 -8h-36v-69q0 -13 -9 -22.5t-23 -9.5zM89 465h127v165z" />
    <glyph glyph-name="five.numr" horiz-adv-x="412" 
d="M196 305q-68 0 -115 25q-17 9 -17 27q0 12 9 20.5t20 8.5q3 0 5.5 -0.5t5.5 -1.5q17 -5 40 -11t53 -6q94 0 94 65q0 30 -20.5 47t-55.5 17q-41 0 -68.5 -13t-41.5 -13q-15 0 -25 9.5t-10 24.5q0 10 3 29l24 142q5 29 30 29h176q13 0 21.5 -8.5t8.5 -22.5
q0 -13 -8.5 -21.5t-21.5 -8.5h-148l-16 -104q40 17 87 17q59 0 94 -33.5t35 -90.5q0 -127 -159 -127z" />
    <glyph glyph-name="six.numr" horiz-adv-x="408" 
d="M217 305q-77 0 -117.5 51.5t-40.5 149.5q0 94 45 148.5t124 54.5q29 0 54 -5.5t41 -14.5q12 -7 17 -13.5t5 -19.5q0 -11 -8.5 -18t-20.5 -7q-15 0 -33 9t-51 9q-50 0 -78.5 -33t-32.5 -95q19 20 46 32t60 12q64 0 98.5 -35t34.5 -93q0 -55 -38 -93.5t-105 -38.5zM221 508
q-27 0 -54 -12.5t-44 -36.5q14 -97 95 -97q38 0 58.5 22t20.5 53q0 35 -20.5 53t-55.5 18z" />
    <glyph glyph-name="seven.numr" horiz-adv-x="409" 
d="M151 305q-20 0 -27 15t2 32l147 291h-183q-13 0 -21.5 8.5t-8.5 21.5q0 14 8.5 22.5t21.5 8.5h224q15 0 24.5 -8.5t9.5 -21.5t-9 -31l-154 -316q-11 -22 -34 -22z" />
    <glyph glyph-name="eight.numr" horiz-adv-x="394" 
d="M197 305q-67 0 -108.5 31.5t-41.5 78.5q0 78 87 106q-68 22 -68 86q0 43 36.5 72.5t94.5 29.5t95 -29.5t37 -72.5q0 -64 -68 -86q86 -28 86 -106q0 -47 -41 -78.5t-109 -31.5zM197 548q31 0 50.5 15t19.5 38q0 24 -19 38.5t-51 14.5q-31 0 -50 -14.5t-19 -38.5
q0 -23 19 -38t50 -15zM197 360q37 0 62.5 17t25.5 45q0 30 -25 49t-63 19t-63 -19t-25 -49q0 -28 26 -45t62 -17z" />
    <glyph glyph-name="nine.numr" horiz-adv-x="408" 
d="M180 305q-28 0 -53 5.5t-42 14.5q-12 7 -17 13.5t-5 19.5q0 11 8.5 18t20.5 7q15 0 33 -9t51 -9q50 0 78.5 33t32.5 95q-19 -20 -46 -32t-60 -12q-64 0 -98.5 35t-34.5 93q0 56 38 94t105 38q77 0 117.5 -51.5t40.5 -149.5q0 -94 -45 -148.5t-124 -54.5zM111 577
q0 -35 20.5 -53t55.5 -18q27 0 54 12.5t44 36.5q-14 97 -95 97q-37 0 -58 -22t-21 -53z" />
    <glyph glyph-name="periodcentered.loclCAT" horiz-adv-x="260" 
d="M125 226q-23 0 -39.5 17t-16.5 42v3q0 23 16.5 39.5t39.5 16.5h10q23 0 39.5 -16.5t16.5 -42.5q0 -25 -16.5 -42t-39.5 -17h-10z" />
    <glyph glyph-name="uni0308" 
d="M284 575q-21 0 -36 15t-15 36t15 36t36 15t36 -15t15 -36t-15 -36t-36 -15zM116 575q-21 0 -36 15t-15 36t15 36t36 15t36 -15t15 -36t-15 -36t-36 -15z" />
    <glyph glyph-name="uni0307" 
d="M200 575q-21 0 -36 15t-15 36t15 36t36 15t36 -15t15 -36t-15 -36t-36 -15z" />
    <glyph glyph-name="gravecomb" 
d="M200 567q-13 0 -22 11l-69 82q-10 11 -10 25q0 17 10.5 27t26.5 10q13 0 21 -5.5t12 -13.5l51 -90q2 -2 4.5 -7.5t2.5 -11.5q0 -12 -7.5 -19.5t-19.5 -7.5z" />
    <glyph glyph-name="acutecomb" 
d="M200 567q-12 0 -19.5 7.5t-7.5 19.5q0 6 3 11.5t4 7.5l51 90q5 8 12.5 13.5t20.5 5.5q17 0 27 -10t10 -27q0 -14 -10 -25l-69 -82q-9 -11 -22 -11z" />
    <glyph glyph-name="uni0302" 
d="M95 566q-13 0 -22 9.5t-8 20.5q0 11 8 19l68 70q8 8 17 14t23 6h38q14 0 23.5 -6t16.5 -14l68 -70q8 -8 8 -19q1 -11 -8 -20.5t-22 -9.5q-11 0 -18 7l-87 74l-87 -74q-7 -7 -18 -7z" />
    <glyph glyph-name="uni030A" 
d="M200 551q-39 0 -66.5 27.5t-27.5 66.5t27.5 66.5t66.5 27.5t66.5 -27.5t27.5 -66.5t-27.5 -66.5t-66.5 -27.5zM200 596q20 0 34.5 14.5t14.5 34.5t-14.5 34.5t-34.5 14.5t-34.5 -14.5t-14.5 -34.5t14.5 -34.5t34.5 -14.5z" />
    <glyph glyph-name="tildecomb" 
d="M62 571q-9 0 -16 6.5t-7 16.5q0 20 10 42t29 37.5t45 15.5q29 0 54 -11.5t49 -23.5t51 -12q16 0 24.5 7t12.5 20q3 8 8.5 14.5t16.5 6.5t16.5 -6.5t6.5 -15.5q0 -21 -10.5 -43t-29.5 -37t-44 -15q-30 0 -55 12t-49 24t-50 12q-15 0 -24 -9t-15 -23q-2 -7 -7.5 -12.5
t-15.5 -5.5z" />
    <glyph glyph-name="uni0304" 
d="M83 588q-13 0 -21.5 8.5t-8.5 21.5t8.5 21.5t21.5 8.5h234q13 0 21.5 -8.5t8.5 -21.5t-8.5 -21.5t-21.5 -8.5h-234z" />
    <glyph glyph-name="uni0327" 
d="M187 -221q-16 0 -40 5t-50 21q-4 2 -7.5 7t-3.5 10q0 8 4.5 14t14.5 6q3 0 6 -1t4 -2q17 -9 31.5 -13t27.5 -4q24 0 40.5 10t16.5 36q0 15 -10.5 23t-25.5 8q-10 0 -20 -2t-24 -9q-1 -1 -4 -2t-6 -1q-7 0 -12.5 4.5t-5.5 11.5q0 5 1.5 8.5t2.5 5.5l64 102h42l-46 -80
q16 4 34 4q34 0 55.5 -19t21.5 -51q0 -46 -29 -69t-82 -23z" />
    <glyph glyph-name="uni0308.case" 
d="M284 747q-21 0 -36 15t-15 36t15 36t36 15t36 -15t15 -36t-15 -36t-36 -15zM116 747q-21 0 -36 15t-15 36t15 36t36 15t36 -15t15 -36t-15 -36t-36 -15z" />
    <glyph glyph-name="gravecomb.case" 
d="M200 739q-13 0 -22 11l-69 82q-10 11 -10 25q0 17 10.5 27t26.5 10q13 0 21 -5.5t12 -13.5l51 -90q2 -2 4.5 -7.5t2.5 -11.5q0 -12 -7.5 -19.5t-19.5 -7.5z" />
    <glyph glyph-name="acutecomb.case" 
d="M200 739q-12 0 -19.5 7.5t-7.5 19.5q0 6 3 11.5t4 7.5l51 90q5 8 12.5 13.5t20.5 5.5q17 0 27 -10t10 -27q0 -14 -10 -25l-69 -82q-9 -11 -22 -11z" />
    <glyph glyph-name="uni0302.case" 
d="M95 738q-13 0 -22 9.5t-8 20.5q0 11 8 19l68 70q8 8 17 14t23 6h38q14 0 23.5 -6t16.5 -14l68 -70q8 -8 8 -19q1 -11 -8 -20.5t-22 -9.5q-11 0 -18 7l-87 74l-87 -74q-7 -7 -18 -7z" />
    <glyph glyph-name="uni0306.case" 
d="M200 748q-48 0 -84.5 22t-55.5 59q-3 6 -3 14q0 13 8.5 22t22.5 9q19 0 28 -19q11 -22 33 -35.5t51 -13.5t51.5 13.5t32.5 35.5q9 19 28 19q14 0 22.5 -9t8.5 -22q0 -8 -3 -14q-19 -37 -55.5 -59t-84.5 -22z" />
    <glyph glyph-name="uni030A.case" 
d="M200 723q-39 0 -66.5 27.5t-27.5 66.5t27.5 66.5t66.5 27.5t66.5 -27.5t27.5 -66.5t-27.5 -66.5t-66.5 -27.5zM200 768q20 0 34.5 14.5t14.5 34.5t-14.5 34.5t-34.5 14.5t-34.5 -14.5t-14.5 -34.5t14.5 -34.5t34.5 -14.5z" />
    <glyph glyph-name="tildecomb.case" 
d="M62 743q-9 0 -16 6.5t-7 16.5q0 20 10 42t29 37.5t45 15.5q29 0 54 -11.5t49 -23.5t51 -12q16 0 24.5 7t12.5 20q3 8 8.5 14.5t16.5 6.5t16.5 -6.5t6.5 -15.5q0 -21 -10.5 -43t-29.5 -37t-44 -15q-30 0 -55 12t-49 24t-50 12q-15 0 -24 -9t-15 -23q-2 -7 -7.5 -12.5
t-15.5 -5.5z" />
    </font>
</defs>
</svg>
