<?xml version="1.0" ?><svg viewBox="0 0 469.2 512" xmlns="http://www.w3.org/2000/svg"><defs><style>.cls-1{fill:#ffc107;stroke:#000;stroke-linecap:round;stroke-linejoin:round;stroke-width:20px;}</style></defs><g data-name="Layer 2" id="Layer_2"><g id="feedburner"><path class="cls-1" d="M389.18,333.33a124.78,124.78,0,0,0,2.31-22.07c.36-92.47-48.81-128.53-100.89-159.35,15.09,81-33.69,131-94.27,113.47C284.88,117.32,156,116.94,195.4,10,134.82,54,74.05,177.07,74.26,266.91a316.32,316.32,0,0,0,6.71,66c-43.6,17.86-71,43.14-71,71.18C10,458,110.89,502,234.6,502s224.6-44,224.6-97.91c0-27.83-27-52.92-70-70.76ZM148.65,215.81C131.91,293,176.8,350.55,220.08,351.11c48.78.37,77.71-46.22,91.48-107.32,25.94,20.24,39.32,48.43,41,77.19a.86.86,0,0,0-.21-.07c2,32.57-28.66,120.2-126.95,120.2-87.71,0-112.9-63.95-111.34-119.49l-.21.06c.87-30.93,11.26-66.67,34.77-105.87Z"/></g></g></svg>